<svg xmlns="http://www.w3.org/2000/svg" version="1.1" xmlns:xlink="http://www.w3.org/1999/xlink" width="1000" height="1000"><metadata><rdf:RDF xmlns:rdf="http://www.w3.org/1999/02/22-rdf-syntax-ns#" xmlns:dc="http://purl.org/dc/elements/1.1/"><rdf:Description><dc:creator>RealFaviconGenerator</dc:creator><dc:source>https://realfavicongenerator.net</dc:source></rdf:Description></rdf:RDF></metadata><g clip-path="url(#SvgjsClipPath1021)"><rect width="1000" height="1000" fill="#ffffff"></rect><g transform="matrix(20,0,0,20,140,100)"><svg xmlns="http://www.w3.org/2000/svg" viewBox="254 26 36 40" width="36" height="40"><style type="text/css">
	.st3{fill:#27A6DF;}
	.st5{fill:#ED2027;}
</style><g>
		<path class="st3" d="M282,47.4c-2,0-3.6,1.6-3.6,3.6v0.2c0,3.1-3,4.6-5.7,4.6S267,54.2,267,51v0.4c0-2-1.6-3.6-3.6-3.6
			s-3.6,1.6-3.6,3.6v-0.2c0,7.3,5.7,11.4,12.8,11.4c7.2,0,13-4.2,13-11.6l0,0C285.6,49,284,47.4,282,47.4z"></path>
		<g>
			<path class="st5" d="M264.8,44.4c-3.7,0-6.7-3-6.7-6.7s3-6.7,6.7-6.7s6.7,3,6.7,6.7S268.5,44.4,264.8,44.4z M264.8,35.6
				c-1.1,0-2,0.9-2,2s0.9,2,2,2s2-0.9,2-2C266.8,36.5,265.9,35.6,264.8,35.6z"></path>
		</g>
		<g>
			<path class="st5" d="M282.6,43.8c-0.3,0-0.6-0.1-1-0.2l-6.6-3c-0.6-0.3-1.1-0.8-1.3-1.5c-0.2-0.7-0.1-1.4,0.3-2l4.5-6.4
				c0.8-1.1,2.2-1.3,3.3-0.6s1.3,2.2,0.6,3.3l-2.9,4.1l4,1.8c1.2,0.5,1.7,1.9,1.2,3.1C284.4,43.3,283.5,43.8,282.6,43.8z"></path>
		</g>
	</g></svg></g></g><defs><clipPath id="SvgjsClipPath1021"><rect width="1000" height="1000" x="0" y="0" rx="500" ry="500"></rect></clipPath></defs></svg>