<?xml version="1.0" encoding="utf-8"?>
<!-- Generator: Adobe Illustrator 27.3.1, SVG Export Plug-In . SVG Version: 6.00 Build 0)  -->
<svg version="1.1" id="Layer_1" xmlns="http://www.w3.org/2000/svg" xmlns:xlink="http://www.w3.org/1999/xlink" x="0px" y="0px"
	 viewBox="0 0 540 93" style="enable-background:new 0 0 540 93;" xml:space="preserve">
<style type="text/css">
	.st0{fill:#FFFFFF;}
	.st1{fill:#3EB54B;}
	.st2{fill:#F48220;}
	.st3{fill:#27A6DF;}
	.st4{fill:#FEDB00;}
	.st5{fill:#ED2027;}
</style>
	<g>
		<path class="st1" d="M118.2,53.1c-0.8,0-1.6,0.2-2.2,0.7c-1.3,0.9-2.5,1.5-4.5,1.5c-3.3-0.1-5.7-3-5.6-6.7c0.1-3.6,2.7-6.2,6-6.1
			c1.5,0.1,2.8,0.6,4.2,1.7c0.3,0.2,1,0.7,2.1,0.7c2,0.1,3.6-1.4,3.7-3.4c0-1.1-0.4-2.2-1.3-2.9c-2.3-1.8-4.9-2.8-8.3-2.9
			c-7.6-0.3-13.5,5.2-13.8,12.6v0.1c-0.3,7.3,5.2,13.3,12.6,13.6c3.7,0.1,6.5-0.7,9.1-2.8c0.8-0.6,1.3-1.6,1.3-2.6
			C121.6,54.8,120.1,53.2,118.2,53.1z"/>
		<path class="st1" d="M135.7,35c-7.6,0.2-13.3,6.2-13.1,13.5v0.1c0.2,7.5,6.2,12.9,13.8,12.7c7.6-0.2,13.4-6.2,13.1-13.6
			C149.4,40.2,143.4,34.7,135.7,35z M142.1,47.9L142.1,47.9c0.1,3.7-2.4,6.4-5.9,6.5c-3.5,0.1-6.2-2.6-6.3-6.3
			c-0.1-3.6,2.4-6.4,5.9-6.5C139.3,41.6,142,44.3,142.1,47.9z"/>
		<path class="st1" d="M168.2,52.6l-8.5,1.2l-2.1-15.2c-0.3-2-2.1-3.3-4-3.1c-2,0.3-3.4,2-3.1,4l2.5,18.3c0.3,2,2.1,3.3,4.1,3.1
			l12-1.6c1.8-0.2,3.1-2,2.9-3.8C171.7,53.6,170,52.4,168.2,52.6z"/>
		<path class="st1" d="M183.7,33.6c-7.6,0.2-13.4,6.2-13.1,13.5v0.1c0.2,7.5,6.2,12.9,13.8,12.7c7.6-0.2,13.4-6.2,13.1-13.6
			C197.3,38.8,191.3,33.4,183.7,33.6z M190.1,46.6c0.1,3.6-2.4,6.4-5.9,6.5c-3.5,0.1-6.2-2.6-6.3-6.3c-0.1-3.6,2.4-6.4,5.9-6.5
			C187.3,40.3,190,42.9,190.1,46.6L190.1,46.6z"/>
		<path class="st1" d="M217.5,49.7c2.7-1.5,4.2-4,4.3-7.4c0.1-2.5-0.7-4.6-2.1-6.1c-1.7-1.8-4.3-2.8-7.5-2.9L204,33
			c-2,0-3.6,1.5-3.7,3.5L199.9,55c-0.1,2,1.5,3.6,3.5,3.7c2,0,3.6-1.5,3.7-3.5l0.1-4.1l2.6,0.1l4.6,6.1c0.9,1.2,2,1.8,3.3,1.8
			c1.9,0,3.5-1.4,3.6-3.3c0-1.2-0.5-1.9-1-2.7L217.5,49.7z M214.5,42.4c-0.1,2.1-2.1,2.2-3,2.2l-4.2-0.1l0.1-4.7l4.1,0.1
			C214.6,40,214.6,41.7,214.5,42.4z"/>
		<path class="st2" d="M252.4,42.5c1.8-0.3,3.1-2,2.8-3.8s-2-3.1-3.8-2.8l-13,2c-2,0.3-3.3,2.1-3,4.1l2.8,18.3c0.3,2,2.1,3.3,4.1,3
			c2-0.3,3.3-2.1,3-4.1l-0.9-5.6l8-1.2c1.8-0.3,3.1-2,2.8-3.8c-0.3-1.8-2-3.1-3.8-2.8l-8,1.2L243,44L252.4,42.5z"/>
		<path class="st3" d="M282,47.4c-2,0-3.6,1.6-3.6,3.6v0.2c0,3.1-3,4.6-5.7,4.6S267,54.2,267,51v0.4c0-2-1.6-3.6-3.6-3.6
			s-3.6,1.6-3.6,3.6v-0.2c0,7.3,5.7,11.4,12.8,11.4c7.2,0,13-4.2,13-11.6l0,0C285.6,49,284,47.4,282,47.4z"/>
		<path class="st4" d="M309,36.9c-2-0.1-3.6,1.5-3.7,3.4l-0.3,9.1l-7.8-11c-0.7-1-1.6-2-3.4-2l-0.5,0c-2-0.1-3.6,1.5-3.7,3.5
			L289,58.6c-0.1,2,1.5,3.6,3.4,3.7c2,0.1,3.6-1.5,3.7-3.4l0.3-9.6l8.1,11.5c0.7,1,1.6,2,3.6,2c2,0.1,3.6-1.5,3.7-3.5l0.6-18.7
			C312.6,38.6,311,37,309,36.9z"/>
		<path class="st3" d="M336.8,34.7l-7,0.6c-2,0.2-3.5,1.9-3.3,3.9l1.6,18.5c0.2,2,1.9,3.5,3.9,3.3c2-0.2,3.5-1.9,3.3-3.9l-0.3-3.6
			l2.9-0.2c6.3-0.5,10.1-4.6,9.7-10.2C347,37.5,342.7,34.2,336.8,34.7z M340.3,43.7c0.1,1.6-1,2.6-2.9,2.8l-3.1,0.3l-0.4-5.1l3-0.2
			C339,41.2,340.1,42,340.3,43.7z"/>
		<path class="st3" d="M371.3,55.4L363.1,37c-0.8-1.7-2.1-2.7-3.9-2.7h-0.3c-1.8,0-3.2,1-3.9,2.7l-8.2,18.5
			c-0.2,0.4-0.4,0.9-0.4,1.5c0,1.9,1.5,3.4,3.4,3.4c1.5,0,2.7-0.8,3.3-2.2l1.4-3.2h9l1.3,3.1c0.7,1.5,1.9,2.4,3.4,2.4
			c1.9,0,3.5-1.5,3.5-3.5C371.6,56.4,371.5,56,371.3,55.4z M360.7,48.3h-3.5l1.7-4.1L360.7,48.3z"/>
		<path class="st3" d="M391.1,51.1c2.7-1.5,4.2-4,4.2-7.5c0-2.5-0.7-4.6-2.2-6.1c-1.7-1.8-4.3-2.8-7.5-2.8l-8.1-0.1
			c-2,0-3.6,1.5-3.7,3.5l-0.3,18.5c0,2,1.5,3.6,3.5,3.7c2,0,3.6-1.5,3.7-3.5l0.1-4.1l2.6,0l4.6,6.1c0.9,1.2,2,1.8,3.3,1.8
			c1.9,0,3.5-1.5,3.5-3.3c0-1.2-0.5-1.9-1-2.6L391.1,51.1z M388.1,43.8c0,2.1-2.1,2.3-3,2.3l-4.2-0.1l0.1-4.7l4.1,0.1
			C388.2,41.4,388.1,43.2,388.1,43.8z"/>
		<path class="st3" d="M418.1,55.1l-6-8.8l6.3-5.1c0.9-0.7,1.4-1.6,1.5-2.6c0.1-1.9-1.2-3.5-3.1-3.6c-1.4-0.1-2.3,0.5-3,1.1
			l-8.3,7.2l0.4-5.4c0.1-2-1.3-3.7-3.3-3.8c-2-0.2-3.7,1.3-3.8,3.3L397.3,56c-0.1,2,1.3,3.7,3.3,3.8c2,0.2,3.7-1.3,3.8-3.3l0.3-4.2
			l1.9-1.6l5.5,8.3c0.5,0.8,1.3,1.7,2.9,1.8c2.1,0.2,3.7-1.2,3.9-3.3C419,56.5,418.5,55.7,418.1,55.1z"/>
		<path class="st3" d="M431.9,43.8c-4.2-0.3-4.5-0.7-4.6-1.4c-0.1-0.6,0.6-1.2,1.8-1.4c1.3-0.2,2.8,0,4.6,0.6
			c0.6,0.2,1.2,0.3,1.9,0.2c1.9-0.3,3.1-2.1,2.8-3.9c-0.2-1.4-1.3-2.3-2.1-2.6c-2.6-1-5.3-1.3-8.3-0.8c-5.4,0.9-8.5,4.9-7.7,9.6
			c1,5.5,5,6.2,9.8,6.5c4.1,0.3,4.2,0.8,4.3,1.3c0.2,1.1-1.6,1.5-2.1,1.6c-1.9,0.3-3.7,0-5.7-1c-0.7-0.3-1.4-0.4-2.1-0.3
			c-1.9,0.3-3.1,2.1-2.8,3.9c0.2,1.1,0.9,2,1.9,2.5c3,1.4,6.5,1.9,9.8,1.3c5.8-1,8.9-4.9,8-9.9C440.5,45.2,436.3,44.2,431.9,43.8z"
			/>
		<g>
			<path class="st5" d="M264.8,44.4c-3.7,0-6.7-3-6.7-6.7s3-6.7,6.7-6.7s6.7,3,6.7,6.7S268.5,44.4,264.8,44.4z M264.8,35.6
				c-1.1,0-2,0.9-2,2s0.9,2,2,2s2-0.9,2-2C266.8,36.5,265.9,35.6,264.8,35.6z"/>
		</g>
		<g>
			<path class="st5" d="M282.6,43.8c-0.3,0-0.6-0.1-1-0.2l-6.6-3c-0.6-0.3-1.1-0.8-1.3-1.5c-0.2-0.7-0.1-1.4,0.3-2l4.5-6.4
				c0.8-1.1,2.2-1.3,3.3-0.6s1.3,2.2,0.6,3.3l-2.9,4.1l4,1.8c1.2,0.5,1.7,1.9,1.2,3.1C284.4,43.3,283.5,43.8,282.6,43.8z"/>
		</g>
	</g>
</svg>
