<?xml version="1.0" encoding="UTF-8"?>
<svg xmlns="http://www.w3.org/2000/svg" xmlns:xlink="http://www.w3.org/1999/xlink" version="1.1" viewBox="0 0 283 173">
  <!-- Generator: Adobe Illustrator 30.4.0, SVG Export Plug-In . SVG Version: 2.1.4 Build 226)  -->
  <defs>
    <style>
      .st0 {
        fill: #662d91;
      }

      .st1 {
        fill: #ffcd23;
      }

      .st2 {
        fill: #8dc63f;
      }

      .st3 {
        stroke: #bc1242;
      }

      .st3, .st4, .st5, .st6, .st7, .st8, .st9 {
        fill: none;
        stroke-miterlimit: 10;
        stroke-width: .7px;
      }

      .st10 {
        fill: url(#linear-gradient6);
      }

      .st11 {
        fill: url(#linear-gradient8);
      }

      .st12 {
        fill: url(#linear-gradient7);
      }

      .st13 {
        fill: url(#linear-gradient5);
      }

      .st14 {
        fill: url(#linear-gradient2);
      }

      .st14, .st15 {
        opacity: .5;
      }

      .st16 {
        fill: url(#linear-gradient4);
      }

      .st16, .st17 {
        opacity: .3;
      }

      .st18 {
        fill: url(#linear-gradient9);
      }

      .st18, .st19, .st20 {
        opacity: .2;
      }

      .st21 {
        fill: url(#linear-gradient1);
      }

      .st21, .st22, .st23 {
        opacity: .2;
      }

      .st22 {
        fill: url(#linear-gradient3);
      }

      .st24 {
        fill: url(#linear-gradient46);
      }

      .st25 {
        fill: url(#linear-gradient48);
      }

      .st26 {
        fill: url(#linear-gradient47);
      }

      .st4 {
        stroke: #2aa271;
      }

      .st5 {
        stroke: #ffd203;
      }

      .st27 {
        fill: url(#linear-gradient19);
      }

      .st27, .st28, .st29, .st30, .st31, .st32, .st33, .st34, .st35, .st36, .st37, .st17, .st38, .st39, .st15, .st40 {
        mix-blend-mode: multiply;
      }

      .st28 {
        fill: url(#linear-gradient15);
      }

      .st6 {
        stroke: #4b1e77;
      }

      .st41 {
        fill: #9cd5d8;
      }

      .st23, .st42, .st43, .st44, .st45 {
        fill: #fff;
      }

      .st42 {
        opacity: .3;
      }

      .st43 {
        opacity: .3;
      }

      .st46 {
        opacity: .5;
      }

      .st46, .st47, .st48, .st49, .st45, .st50, .st51, .st52, .st53, .st54, .st55, .st56 {
        mix-blend-mode: screen;
      }

      .st46, .st47, .st48, .st57 {
        fill: #fff200;
      }

      .st47, .st58, .st59 {
        opacity: .4;
      }

      .st48, .st45, .st60, .st55 {
        opacity: .2;
      }

      .st49, .st61 {
        fill: #a4cd39;
      }

      .st49, .st50, .st53 {
        opacity: .4;
      }

      .st62 {
        isolation: isolate;
      }

      .st63 {
        fill: #ed1c24;
      }

      .st7 {
        stroke: #ffc70e;
      }

      .st64 {
        clip-path: url(#clippath-10);
      }

      .st65, .st50 {
        fill: #a0489b;
      }

      .st66, .st67, .st68 {
        fill: #ffc70e;
      }

      .st66, .st69, .st70, .st71 {
        opacity: .5;
      }

      .st67, .st37 {
        opacity: .5;
      }

      .st8 {
        stroke: #00578c;
      }

      .st72 {
        fill: #ffce25;
      }

      .st73 {
        clip-path: url(#clippath-1);
      }

      .st74 {
        clip-path: url(#clippath-3);
      }

      .st75 {
        clip-path: url(#clippath-4);
      }

      .st76 {
        clip-path: url(#clippath-2);
      }

      .st77 {
        clip-path: url(#clippath-7);
      }

      .st78 {
        clip-path: url(#clippath-6);
      }

      .st79 {
        clip-path: url(#clippath-9);
      }

      .st80 {
        clip-path: url(#clippath-8);
      }

      .st81 {
        clip-path: url(#clippath-5);
      }

      .st82 {
        fill: url(#linear-gradient29);
      }

      .st82, .st40 {
        opacity: .3;
      }

      .st83 {
        fill: url(#linear-gradient11);
        opacity: .3;
      }

      .st19 {
        fill: url(#linear-gradient44);
      }

      .st20 {
        fill: url(#linear-gradient28);
      }

      .st58 {
        fill: url(#linear-gradient38);
      }

      .st59 {
        fill: url(#linear-gradient39);
      }

      .st84 {
        fill: url(#linear-gradient21);
        opacity: .4;
      }

      .st85 {
        fill: url(#linear-gradient10);
        opacity: .4;
      }

      .st86 {
        fill: url(#linear-gradient30);
      }

      .st86, .st87 {
        opacity: .4;
      }

      .st87 {
        fill: url(#linear-gradient33);
      }

      .st88 {
        fill: url(#linear-gradient14);
      }

      .st88, .st89 {
        opacity: .4;
      }

      .st90 {
        fill: url(#linear-gradient24);
      }

      .st90, .st91, .st92 {
        opacity: .5;
      }

      .st91 {
        fill: url(#linear-gradient23);
      }

      .st92 {
        fill: url(#linear-gradient22);
      }

      .st93 {
        fill: url(#linear-gradient12);
      }

      .st93, .st94, .st95 {
        opacity: .5;
      }

      .st94 {
        fill: url(#linear-gradient13);
      }

      .st69 {
        fill: url(#linear-gradient18);
      }

      .st70 {
        fill: url(#linear-gradient17);
      }

      .st71 {
        fill: url(#linear-gradient20);
      }

      .st96 {
        fill: url(#linear-gradient49);
      }

      .st96, .st97, .st98 {
        opacity: .5;
      }

      .st97 {
        fill: url(#linear-gradient32);
      }

      .st98 {
        fill: url(#linear-gradient31);
      }

      .st99 {
        fill: url(#linear-gradient43);
        opacity: .2;
      }

      .st100 {
        fill: url(#linear-gradient);
        opacity: .6;
      }

      .st29 {
        fill: url(#linear-gradient25);
        opacity: .8;
      }

      .st30 {
        fill: url(#linear-gradient27);
        opacity: .8;
      }

      .st31 {
        fill: url(#linear-gradient26);
        opacity: 1;
      }

      .st32 {
        fill: url(#linear-gradient16);
        opacity: .4;
      }

      .st33 {
        fill: url(#linear-gradient42);
        opacity: .6;
      }

      .st34 {
        fill: url(#linear-gradient36);
      }

      .st34, .st35, .st36 {
        opacity: .6;
      }

      .st35 {
        fill: url(#linear-gradient35);
      }

      .st36 {
        fill: url(#linear-gradient34);
      }

      .st37 {
        fill: url(#linear-gradient40);
      }

      .st17 {
        fill: url(#linear-gradient41);
      }

      .st38 {
        fill: url(#linear-gradient37);
      }

      .st38, .st39 {
        opacity: .3;
      }

      .st39 {
        fill: url(#linear-gradient45);
      }

      .st101 {
        fill: #274e93;
        opacity: .2;
      }

      .st9 {
        stroke: #274e93;
      }

      .st89 {
        fill: #bc1242;
      }

      .st102 {
        opacity: .7;
      }

      .st15 {
        fill: #f4c7a2;
      }

      .st40, .st95, .st103 {
        fill: #4b1e77;
      }

      .st104 {
        fill: #f177ae;
      }

      .st105 {
        fill: #0098d8;
      }

      .st106 {
        clip-path: url(#clippath);
      }

      .st51 {
        opacity: .2;
      }

      .st52 {
        opacity: .2;
      }

      .st54 {
        opacity: .4;
      }

      .st56 {
        opacity: .3;
      }
    </style>
    <clipPath id="clippath">
      <path class="st105" d="M85.7,30.9h0c4.8,1,8.2,5.3,8.1,10.2l-.3,21.1c0,6.2-5.7,10.9-11.9,10l-3-.5c-5.7-.8-9.6-6.1-8.7-11.8l3.3-20.6c.9-5.8,6.6-9.7,12.4-8.4Z"/>
    </clipPath>
    <linearGradient id="linear-gradient" x1="82.1" y1="76.6" x2="82.1" y2="32.4" gradientTransform="translate(.2 0)" gradientUnits="userSpaceOnUse">
      <stop offset="0" stop-color="#274e93"/>
      <stop offset=".9" stop-color="#00bbf0"/>
    </linearGradient>
    <linearGradient id="linear-gradient1" x1="87.3" y1="27.9" x2="87.3" y2="61.4" gradientTransform="translate(.2 0)" gradientUnits="userSpaceOnUse">
      <stop offset="0" stop-color="#fff"/>
      <stop offset=".3" stop-color="#a5daf1"/>
      <stop offset=".7" stop-color="#4db7e3"/>
      <stop offset=".9" stop-color="#15a0db"/>
      <stop offset="1" stop-color="#0098d8"/>
      <stop offset="1" stop-color="#274e93"/>
    </linearGradient>
    <clipPath id="clippath-1">
      <ellipse class="st105" cx="86.4" cy="17.6" rx="9.6" ry="9.5"/>
    </clipPath>
    <linearGradient id="linear-gradient2" x1="72.8" y1="19.4" x2="101.3" y2="19.4" xlink:href="#linear-gradient"/>
    <linearGradient id="linear-gradient3" x1="83.6" y1="10" x2="96.8" y2="10" xlink:href="#linear-gradient1"/>
    <linearGradient id="linear-gradient4" x1="73.6" y1="18" x2="84.7" y2="18" xlink:href="#linear-gradient"/>
    <clipPath id="clippath-2">
      <path class="st63" d="M59.4,63.5l-11.3-5.1c-1.2-.5-1.4-2.1-.5-3l11.1-10.7c8.5-11.2-9.3-20.8-14.3-12.1l-11.4,19.3c-.7,1.1-2.4.9-2.7-.4l-3.3-13.1c-3-8.7-14-6.8-16.4.3-.4,1.3-.5,2.7-.2,4l8.5,41.8c2.4,11.4,21.4,5.9,18.6-4.9,0,0-2.6-10.2-2.7-10.4,0-.2-.3-1.2.2-1.5.8-.6,1.8.3,1.8.3l14.4,9.6c9.7,6.6,18.2-8.2,8.2-14Z"/>
    </clipPath>
    <linearGradient id="linear-gradient5" x1="40.6" y1="24.4" x2="40.6" y2="93.6" gradientTransform="translate(.2 0)" gradientUnits="userSpaceOnUse">
      <stop offset=".3" stop-color="#ed1c24"/>
      <stop offset=".7" stop-color="#d31633"/>
      <stop offset="1" stop-color="#bc1242"/>
    </linearGradient>
    <linearGradient id="linear-gradient6" x1="23.5" y1="41.8" x2="23.5" y2="95.2" xlink:href="#linear-gradient5"/>
    <linearGradient id="linear-gradient7" x1="48.7" y1="63.3" x2="48.7" y2="84" gradientTransform="translate(.2 0)" gradientUnits="userSpaceOnUse">
      <stop offset="0" stop-color="#ed1c24"/>
      <stop offset=".6" stop-color="#d31633"/>
      <stop offset="1" stop-color="#bc1242"/>
    </linearGradient>
    <linearGradient id="linear-gradient8" x1="56.6" y1="35.9" x2="50.2" y2="67.2" gradientTransform="translate(.2 0)" gradientUnits="userSpaceOnUse">
      <stop offset="0" stop-color="#ed1c24"/>
      <stop offset=".5" stop-color="#d31633"/>
      <stop offset=".9" stop-color="#bc1242"/>
    </linearGradient>
    <linearGradient id="linear-gradient9" x1="20.3" y1="29.8" x2="20.3" y2="58.6" gradientTransform="translate(.2 0)" gradientUnits="userSpaceOnUse">
      <stop offset="0" stop-color="#fff"/>
      <stop offset="1" stop-color="#ed1c24"/>
    </linearGradient>
    <linearGradient id="linear-gradient10" x1="51.1" y1="26.5" x2="51.1" y2="46.8" xlink:href="#linear-gradient9"/>
    <linearGradient id="linear-gradient11" x1="57.4" y1="56.1" x2="57.4" y2="72.5" gradientTransform="translate(.2 0)" gradientUnits="userSpaceOnUse">
      <stop offset="0" stop-color="#ed1c24"/>
      <stop offset="1" stop-color="#fff"/>
    </linearGradient>
    <clipPath id="clippath-3">
      <path class="st1" d="M154.7,43.9s0-.4,0-.7c-2-16.9-11.9-26.1-27.2-24.8l-12.3.4c-.5,0-1,0-1.5,0h0s0,0,0,0c-3.8.4-7.4,3.2-8,7.7l4,43.8c.5,5.2,4.8,7.4,9.2,7.2h0s20.3-1.9,20.3-1.9c7.7-1.3,19.2-6.4,15.6-31.8ZM133.3,57.4l-3.9.3c-1.3,0-2.4-.8-2.6-2.1l-2.5-17.3c-.2-1.2.7-2.3,1.9-2.4l3.2-.2c4.7-.7,6.8,4.6,7.9,10.4,0,.4.1.8.2,1.3.7,5.8.4,9.7-4.3,10Z"/>
    </clipPath>
    <linearGradient id="linear-gradient12" x1="126.2" y1="21.8" x2="126.2" y2="84.2" gradientTransform="translate(.2 0)" gradientUnits="userSpaceOnUse">
      <stop offset="0" stop-color="#ffcd23"/>
      <stop offset=".7" stop-color="#ffc813"/>
      <stop offset=".8" stop-color="#ffc70e"/>
    </linearGradient>
    <linearGradient id="linear-gradient13" x1="130.2" y1="29.8" x2="130.2" y2="56.7" gradientTransform="translate(.2 0)" gradientUnits="userSpaceOnUse">
      <stop offset="0" stop-color="#ffc70e"/>
      <stop offset=".2" stop-color="#ffc813"/>
      <stop offset=".8" stop-color="#ffcd23"/>
    </linearGradient>
    <linearGradient id="linear-gradient14" x1="105.7" y1="26.4" x2="160.7" y2="26.4" gradientTransform="translate(.2 0)" gradientUnits="userSpaceOnUse">
      <stop offset="0" stop-color="#ffcd23"/>
      <stop offset="0" stop-color="#ffd033"/>
      <stop offset=".3" stop-color="#ffda5d"/>
      <stop offset=".5" stop-color="#ffe9a0"/>
      <stop offset=".8" stop-color="#fffefd"/>
      <stop offset=".8" stop-color="#fff"/>
    </linearGradient>
    <linearGradient id="linear-gradient15" x1="130.7" y1="13" x2="130.7" y2="82.8" gradientTransform="translate(.2 0)" gradientUnits="userSpaceOnUse">
      <stop offset=".1" stop-color="#fff"/>
      <stop offset="1" stop-color="#ffc70e"/>
    </linearGradient>
    <clipPath id="clippath-4">
      <path class="st2" d="M215.7,45.9s0-.4.2-.7c3.9-16.6-2.2-28.6-17-32.5l-11.7-3.8c-.5-.2-1-.4-1.5-.5h0s0,0,0,0c-3.7-.9-8.1.5-10.1,4.5l-11.3,42.6c-1.3,5.1,2,8.6,6.2,9.9h0s19.7,5.2,19.7,5.2c7.7,1.4,20.2.5,25.6-24.6ZM190.9,51.3l-3.7-1c-1.2-.3-2-1.6-1.7-2.8l3.6-17.1c.3-1.2,1.5-1.9,2.7-1.6l3.1.9c4.7,1,4.8,6.7,3.8,12.5,0,.4-.2.8-.3,1.3-1.3,5.7-3,9.2-7.5,8Z"/>
    </clipPath>
    <linearGradient id="linear-gradient16" x1="166.5" y1="35.4" x2="220.8" y2="35.4" gradientTransform="translate(.2 0)" gradientUnits="userSpaceOnUse">
      <stop offset="0" stop-color="#2aa271"/>
      <stop offset=".9" stop-color="#8dc63f"/>
    </linearGradient>
    <linearGradient id="linear-gradient17" x1="171.4" y1="11.4" x2="171.4" y2="69.1" gradientTransform="translate(.2 0)" gradientUnits="userSpaceOnUse">
      <stop offset="0" stop-color="#8dc63f"/>
      <stop offset=".8" stop-color="#2aa271"/>
    </linearGradient>
    <linearGradient id="linear-gradient18" x1="194.1" y1="50.6" x2="194.1" y2="23.9" xlink:href="#linear-gradient17"/>
    <linearGradient id="linear-gradient19" x1="190.1" y1=".4" x2="190.1" y2="80.9" gradientTransform="translate(.2 0)" gradientUnits="userSpaceOnUse">
      <stop offset=".1" stop-color="#fff"/>
      <stop offset="1" stop-color="#2aa271"/>
    </linearGradient>
    <linearGradient id="linear-gradient20" x1="175.6" y1="69.1" x2="213.5" y2="69.1" xlink:href="#linear-gradient17"/>
    <linearGradient id="linear-gradient21" x1="185.5" y1="22" x2="220.5" y2="22" gradientTransform="translate(.2 0)" gradientUnits="userSpaceOnUse">
      <stop offset="0" stop-color="#8dc63f"/>
      <stop offset=".9" stop-color="#fff"/>
    </linearGradient>
    <clipPath id="clippath-5">
      <path class="st0" d="M245.2,38.3l-7.6-11.1c-2.8-4.1-8.6-5-12.5-2h0c-4,3-4.6,8.7-1.3,12.5l11.6,13.5c.7.8.9,1.5.6,2.6l-3.9,14.8c-1.6,6,2.3,12.1,8.4,13.3h0c6.7,1.3,12.9-3.9,12.8-10.7l-.3-14.5c-.1-1.1.3-2,1.1-2.7l12-11.5c4.1-3.9,3.6-10.5-1-13.8h0c-4.3-3.1-10.3-1.8-13,2.7l-4.2,6.9c-.9,1.1-1.8,1.1-2.6,0Z"/>
    </clipPath>
    <linearGradient id="linear-gradient22" x1="218.9" y1="54.4" x2="243.1" y2="54.4" gradientTransform="translate(.2 0)" gradientUnits="userSpaceOnUse">
      <stop offset="0" stop-color="#662d91" stop-opacity=".4"/>
      <stop offset=".5" stop-color="#5a2686" stop-opacity=".7"/>
      <stop offset="1" stop-color="#4b1e77"/>
    </linearGradient>
    <linearGradient id="linear-gradient23" x1="262.4" y1="25.4" x2="262.4" y2="57.7" xlink:href="#linear-gradient22"/>
    <linearGradient id="linear-gradient24" x1="241.3" y1="35.5" x2="251.6" y2="35.5" xlink:href="#linear-gradient22"/>
    <clipPath id="clippath-6">
      <path class="st105" d="M52.3,100c-13.6-8.6-41.7-.4-43.9,23.9-1.7,19,8.5,34.9,26,35.7,6.9.3,13-.4,19.7-3.2,7.2-3.1,9.9-10.5,7.9-16.1-1.9-5.5-8.3-11.1-17.2-6.5-14.2,7.3-18.2-.8-16.7-7.7,1.8-8.5,9.8-10.5,18.8-6.6,3,1.3,8.6-.6,11-5.6,2.5-5.3-.3-10.6-5.6-13.9Z"/>
    </clipPath>
    <linearGradient id="linear-gradient25" x1="-710.4" y1="-1160.6" x2="-687.2" y2="-1112.2" gradientTransform="translate(923.425 1139.6889) rotate(-10.2533)" gradientUnits="userSpaceOnUse">
      <stop offset="0" stop-color="#fff"/>
      <stop offset="0" stop-color="#eef7fb" stop-opacity="1"/>
      <stop offset=".3" stop-color="#c4e3f0" stop-opacity=".9"/>
      <stop offset=".5" stop-color="#81c3e0" stop-opacity=".7"/>
      <stop offset=".8" stop-color="#2497c9" stop-opacity=".5"/>
      <stop offset=".9" stop-color="#0086c1" stop-opacity=".4"/>
    </linearGradient>
    <linearGradient id="linear-gradient26" x1="-690.1" y1="-1171.4" x2="-677" y2="-1149.2" gradientTransform="translate(923.425 1139.6889) rotate(-10.2533)" gradientUnits="userSpaceOnUse">
      <stop offset="0" stop-color="#fff"/>
      <stop offset="0" stop-color="#cee8f3"/>
      <stop offset=".2" stop-color="#98cee6"/>
      <stop offset=".3" stop-color="#69b8da"/>
      <stop offset=".4" stop-color="#43a6d1"/>
      <stop offset=".6" stop-color="#2698ca"/>
      <stop offset=".7" stop-color="#108ec5"/>
      <stop offset=".8" stop-color="#0488c2"/>
      <stop offset=".9" stop-color="#0086c1"/>
    </linearGradient>
    <clipPath id="clippath-7">
      <path class="st8" d="M52.3,100c-13.6-8.6-41.7-.4-43.9,23.9-1.7,19,8.5,34.9,26,35.7,6.9.3,13-.4,19.7-3.2,7.2-3.1,9.9-10.5,7.9-16.1-1.9-5.5-8.3-11.1-17.2-6.5-14.2,7.3-18.2-.8-16.7-7.7,1.8-8.5,9.8-10.5,18.8-6.6,3,1.3,8.6-.6,11-5.6,2.5-5.3-.3-10.6-5.6-13.9Z"/>
    </clipPath>
    <linearGradient id="linear-gradient27" x1="-696.7" y1="-1163.3" x2="-696.7" y2="-1109.8" gradientTransform="translate(923.425 1139.6889) rotate(-10.2533)" gradientUnits="userSpaceOnUse">
      <stop offset=".1" stop-color="#fff"/>
      <stop offset=".2" stop-color="#ceebf7"/>
      <stop offset=".3" stop-color="#98d5ef"/>
      <stop offset=".4" stop-color="#69c2e8"/>
      <stop offset=".5" stop-color="#43b3e2"/>
      <stop offset=".6" stop-color="#26a7dd"/>
      <stop offset=".7" stop-color="#109eda"/>
      <stop offset=".8" stop-color="#0499d8"/>
      <stop offset=".9" stop-color="#0098d8"/>
    </linearGradient>
    <linearGradient id="linear-gradient28" x1="-716.2" y1="-1176.9" x2="-659" y2="-1176.9" gradientTransform="translate(923.425 1139.6889) rotate(-10.2533)" gradientUnits="userSpaceOnUse">
      <stop offset="0" stop-color="#0098d8"/>
      <stop offset="1" stop-color="#fff"/>
    </linearGradient>
    <linearGradient id="linear-gradient29" x1="-705.7" y1="-1147.4" x2="-667.6" y2="-1147.4" gradientTransform="translate(923.425 1139.6889) rotate(-10.2533)" gradientUnits="userSpaceOnUse">
      <stop offset="0" stop-color="#0086c1"/>
      <stop offset="1" stop-color="#fff"/>
    </linearGradient>
    <clipPath id="clippath-8">
      <path class="st2" d="M121.6,93.3h0c5.6-1.4,13.1,2.4,12.7,12l1.3,25.3c.2,3.2,3.1,3.3,6.9,2.7l9.9-2.2c4.8-1.2,9.9,0,12.4,6.1h0c3.3,8.2-5,14.4-10.2,14.9l-25,2.6c-.3,0-.5,0-.8,0,0,0,0,0-.1,0-4.8,0-8.8-3.7-9.6-8.4l-6.4-38.7c-1.7-7.2,2.8-12.6,8.9-14.1Z"/>
    </clipPath>
    <linearGradient id="linear-gradient30" x1="121.2" y1="99.7" x2="137.4" y2="160.1" gradientTransform="translate(.2 0)" gradientUnits="userSpaceOnUse">
      <stop offset=".2" stop-color="#8dc63f"/>
      <stop offset=".3" stop-color="#7dc047"/>
      <stop offset=".5" stop-color="#53b15c"/>
      <stop offset=".7" stop-color="#2aa271"/>
    </linearGradient>
    <linearGradient id="linear-gradient31" x1="134.2" y1="134.4" x2="174" y2="134.4" gradientTransform="translate(.2 0)" gradientUnits="userSpaceOnUse">
      <stop offset=".2" stop-color="#8dc63f"/>
      <stop offset=".3" stop-color="#96ca4f"/>
      <stop offset=".4" stop-color="#afd778"/>
      <stop offset=".6" stop-color="#d7ebbb"/>
      <stop offset=".7" stop-color="#fff"/>
    </linearGradient>
    <linearGradient id="linear-gradient32" x1="122.4" y1="93" x2="132.2" y2="129.4" gradientTransform="translate(.2 0)" gradientUnits="userSpaceOnUse">
      <stop offset=".3" stop-color="#fff"/>
      <stop offset=".4" stop-color="#d7ebbb"/>
      <stop offset=".6" stop-color="#afd778"/>
      <stop offset=".7" stop-color="#96ca4f"/>
      <stop offset=".8" stop-color="#8dc63f"/>
    </linearGradient>
    <linearGradient id="linear-gradient33" x1="140.5" y1="112.3" x2="147" y2="136.8" xlink:href="#linear-gradient30"/>
    <clipPath id="clippath-9">
      <path class="st72" d="M221.1,130.9c0-1.3,1.7-1.8,2.4-.7l8.6,13.6c3.1,3.6,7.4,4.4,10.9,1.8,4.6-3.3,4.6-10.1.2-13.7l-5.6-6.4c-.4-.3-.4-1,.1-1.2,5.9-3,10.2-9,10.7-16.1v-.9c.7-10.5-9-19.1-19.5-20.1l-10.6-1c-4.9-.4-9.4,3-10.2,7.8l-6.2,39.5c-1,5.7,3.2,10.9,9,11.3h0c5.4.3,10.1-3.8,10.4-9.2v-4.7M227.1,111.7l-2.9.3c-1.1,0-2-.8-1.9-1.8l.4-5.9c0-.7.6-1.3,1.3-1.4l2.1-.2c2-.2,3.8,1.2,4.1,3.2l.2,1.6c.3,2.1-1.2,4.1-3.4,4.3Z"/>
    </clipPath>
    <linearGradient id="linear-gradient34" x1="556.8" y1="532" x2="556.8" y2="581.1" gradientTransform="translate(-307.4 -464.2) rotate(3.6)" gradientUnits="userSpaceOnUse">
      <stop offset="0" stop-color="#fff" stop-opacity=".4"/>
      <stop offset=".3" stop-color="#ffe79b" stop-opacity=".6"/>
      <stop offset=".6" stop-color="#ffd64e" stop-opacity=".8"/>
      <stop offset=".9" stop-color="#ffcb1f" stop-opacity="1"/>
      <stop offset="1" stop-color="#ffc70e"/>
    </linearGradient>
    <linearGradient id="linear-gradient35" x1="559" y1="539.4" x2="575.3" y2="539.4" xlink:href="#linear-gradient34"/>
    <linearGradient id="linear-gradient36" x1="582.5" y1="552" x2="582.5" y2="575.7" xlink:href="#linear-gradient34"/>
    <linearGradient id="linear-gradient37" x1="579.6" y1="537.2" x2="579.6" y2="558.5" xlink:href="#linear-gradient34"/>
    <linearGradient id="linear-gradient38" x1="545" y1="524.4" x2="597.5" y2="524.4" gradientTransform="translate(-307.4 -464.2) rotate(3.6)" gradientUnits="userSpaceOnUse">
      <stop offset=".5" stop-color="#ffcd23"/>
      <stop offset="1" stop-color="#fff" stop-opacity=".4"/>
    </linearGradient>
    <linearGradient id="linear-gradient39" x1="543.8" y1="532.5" x2="596.8" y2="532.5" gradientTransform="translate(-307.4 -464.2) rotate(3.6)" gradientUnits="userSpaceOnUse">
      <stop offset=".5" stop-color="#ffc70e"/>
      <stop offset="1" stop-color="#fff" stop-opacity=".4"/>
    </linearGradient>
    <clipPath id="clippath-10">
      <path class="st104" d="M106.6,121.1l-2.3-15.5c-1.2-7.9-8.6-14-17.7-14.4h0c-9.7-.4-18.2,5.8-19.4,14.4l-2.3,15.9c-1.5,10.5,8.5,19.6,20.5,18.5l4.6-.4c10.5-.9,18-9.3,16.7-18.5ZM87.8,119.3h-1.1c-1.6,0-2.2-.5-2.3-3.5v-4.6c-.1-1.9-.1-3,1.8-3.3,1.7-.3,2.2.8,2.5,3.1l.6,4.4c.4,2.6.6,3.8-1.6,3.9Z"/>
    </clipPath>
    <linearGradient id="linear-gradient40" x1="69.8" y1="126.3" x2="97.7" y2="161" gradientTransform="translate(.2 0)" gradientUnits="userSpaceOnUse">
      <stop offset="0" stop-color="#fff" stop-opacity=".4"/>
      <stop offset="1" stop-color="#f177ae"/>
    </linearGradient>
    <linearGradient id="linear-gradient41" x1="85.5" y1="101.7" x2="85.5" y2="126.4" gradientTransform="translate(.2 0)" gradientUnits="userSpaceOnUse">
      <stop offset=".3" stop-color="#bc1242" stop-opacity=".9"/>
      <stop offset="1" stop-color="#fff" stop-opacity=".4"/>
    </linearGradient>
    <linearGradient id="linear-gradient42" x1="84.2" y1="84.6" x2="84.2" y2="153.2" gradientTransform="translate(.2 0)" gradientUnits="userSpaceOnUse">
      <stop offset=".2" stop-color="#fff" stop-opacity=".4"/>
      <stop offset=".9" stop-color="#bc1242"/>
    </linearGradient>
    <linearGradient id="linear-gradient43" x1="85.7" y1="96.7" x2="101.8" y2="121.8" gradientTransform="translate(.2 0)" gradientUnits="userSpaceOnUse">
      <stop offset="0" stop-color="#fff" stop-opacity=".4"/>
      <stop offset=".5" stop-color="#f177ae"/>
    </linearGradient>
    <linearGradient id="linear-gradient44" x1="81.5" y1="112.2" x2="85.7" y2="118.7" gradientTransform="translate(.2 0)" gradientUnits="userSpaceOnUse">
      <stop offset="0" stop-color="#fff" stop-opacity=".4"/>
      <stop offset="0" stop-color="#faf1ef" stop-opacity=".4"/>
      <stop offset="1" stop-color="#bc1242"/>
    </linearGradient>
    <linearGradient id="linear-gradient45" x1="64.7" y1="119.9" x2="97.3" y2="119.9" gradientTransform="translate(.2 0)" gradientUnits="userSpaceOnUse">
      <stop offset="0" stop-color="#fff" stop-opacity=".4"/>
      <stop offset=".4" stop-color="#db839c" stop-opacity=".7"/>
      <stop offset=".8" stop-color="#c4305a" stop-opacity=".9"/>
      <stop offset="1" stop-color="#bc1242"/>
      <stop offset="1" stop-color="#1c75bc"/>
    </linearGradient>
    <linearGradient id="linear-gradient46" x1="164" y1="88.5" x2="164" y2="139.8" gradientTransform="translate(.2 0)" gradientUnits="userSpaceOnUse">
      <stop offset="0" stop-color="#4b1e77" stop-opacity=".4"/>
      <stop offset="0" stop-color="#4c1f78" stop-opacity=".4"/>
      <stop offset=".3" stop-color="#552380" stop-opacity=".6"/>
      <stop offset=".8" stop-color="#612a8c" stop-opacity=".9"/>
      <stop offset="1" stop-color="#662d91"/>
    </linearGradient>
    <linearGradient id="linear-gradient47" x1="179.7" y1="81.9" x2="179.7" y2="103.5" gradientTransform="translate(.2 0)" gradientUnits="userSpaceOnUse">
      <stop offset="0" stop-color="#662d91"/>
      <stop offset="1" stop-color="#a0489b"/>
    </linearGradient>
    <linearGradient id="linear-gradient48" x1="156.6" y1="110.8" x2="183.1" y2="110.8" xlink:href="#linear-gradient46"/>
    <linearGradient id="linear-gradient49" x1="172.3" y1="93.7" x2="172.3" y2="115.7" xlink:href="#linear-gradient46"/>
  </defs>
  <g class="st62">
    <g id="ELEMNTOS_x5F_SOLTOS">
      <path class="st15" d="M282,45.9c-.2-4.7-2.6-9-6.4-11.8-2.7-2-6-3-9.4-3.1-1.1,0-2.2,0-3.3.3-3.7.7-7.1,2.6-9.5,5.4-.6.7-1.8.7-2.3-.1l-1.8-2.7c-2.4-3.6-6.1-5.9-10.4-6.7-.8-.1-1.7-.2-2.5-.2-3.5,0-6.8,1-9.6,3-.3.2-.5.4-.8.6-3.8-7-10.4-12-19.2-14.5l-11.2-3.8c-.6-.3-1.3-.5-2-.7h-.3c-.5-.3-1.1-.4-1.7-.4-.7,0-1.4-.1-2.1-.2-6,0-11.3,3-14.1,8.1h0c-.2.4-.4.9-.5,1.3,0,0-4,13.9-7.3,25.6-.2.7-1.3.7-1.4,0-1.6-7.5-4.8-13.7-9.5-18.1-5.2-4.9-12.1-7.5-19.9-7.6-1.1,0-2.1,0-3.2,0l-11.6.2c-.2,0-.3,0-.5,0-.5,0-1,0-1.6,0h-.3c-.6,0-1.2.1-1.7.3-2.8.6-5.3,1.9-7.4,3.8-.5.4-1.2,0-1.4-1.3-1.3-7.3-7.4-13-15.1-13.1-8.4-.1-15.3,6.6-15.4,15,0,3.2.9,6.1,2.6,8.6.2.4.2.8-.2,1.1-2.2,1.6-3.9,3.8-5,6.2-.2.4-.8.4-.9,0-.2-.5-.4-1-.6-1.5-2.5-5.5-8.4-9.4-14.5-9.8-.2,0-.4,0-.6,0-4.9,0-9.1,2.2-11.5,6.3,0,0-3.5,5.8-3.9,6.6-.4.8-.9.3-.9.1-2-6.1-7.3-10.2-13.4-10.3-.3,0-.7,0-1,0-6.8.3-12.5,5.2-13.8,11.8-.3,1.6-.3,3.3,0,5,0,0,8,40.3,8,40.3.9,4.1,3.1,7.3,6.4,9.3-9.5,5.4-15.4,14.6-16.4,25.6-1,11.6,2.2,22.7,8.7,30.4,5.5,6.5,13,10.3,21.6,11.1,1.1,0,2.1.2,3.1.2,6.7.3,12.5-.7,18.3-2.9,7.9-3,11.8-9.9,12.1-16.5,0-.7.7-1,1.3-.7,3.6,2,7.7,3.1,12,3.3.8,0,1.6,0,2.4,0l4.4-.2c7-.4,13.4-3.4,17.5-8.4,0,0,0,0,0,0,.6-.7,1.7-.4,1.9.5l1.5,9.6c1.1,7.7,7.8,13.7,15.5,14h0s.2,0,.2,0c.5,0,1,0,1.4,0l24.3-1.5c4.6-.2,10.8-2.9,14.4-8.4,2.8-4.3,3.4-9.3,1.5-14.2-.2-.4-.3-.8-.5-1.2-.4-.8.3-1.7,1.2-1.6l3.3.4c.7,0,1.4.1,2.2.2,7.1.2,13.5-2.6,17.7-7.3.5-.5,1.4-.1,1.3.6-.8,4.5-1.4,7.7-1.4,7.7-.8,4.4.3,9,3.1,12.6,2.8,3.6,7.1,6,11.7,6.4.4,0,.7,0,1.1,0,4,.1,7.9-1.1,11-3.6.2-.1.3-.3.5-.4,1-.9,2.6-.7,3.2.5h0c0,.2.2.4.3.5h0c0,.2.2.3.3.4,3.1,3.6,7.2,5.7,11.5,5.8h0c3,.1,5.9-.7,8.5-2.4,3.6-2.3,5.8-5.8,6.4-9.8.6-4.5-1.1-9.2-4.5-13.1h0c-.7-.9-.6-2,.1-2.7,4.2-4.1,6.9-9.6,7.4-15.5v-.9c.7-6.9-1.9-13.6-7.4-18.9-.2-.2-.3-.3-.5-.5,2.6-.6,5-1.7,7.1-3.3,4.2-3.2,6.6-8.1,6.7-13.3v-11.8c0-.8.4-1.5,1-2.1l10.5-9.3c3.6-3.2,5.5-7.7,5.3-12.4ZM71.5,56.3c.1-.1.2-.2.3-.3h0c0-.2.2-.3.3-.4.4-.5.7-1,1-1.4l-1.7,10.3c-.2-.1-.4-.2-.6-.4-.2-.1-.4-.2-.6-.3l-4.5-2.1,5.7-5.4ZM52.7,129.4c-.8.3-1.6.6-2.4,1-2.4,1.1-6.9,2.5-6.6-.5.1-1.3.8-2.1,1.5-2.5.5-.3,1.3-.4,2.1-.3,1.5,0,3.4.6,5.3,1.5.1,0,.2.1.3.1.3.1,0,.6-.3.7ZM150.6,131.4l-2.9.5c-.5,0-1-.3-1.1-.8l-.2-5.8c0-.3.5-.5.6-.1.5,1,1.2,2,1.9,3,.6.8,1.3,1.5,2,2.2.4.4.2,1-.3,1.1ZM223.4,88.9c-.5,0-1,0-1.5-.1-6.9-.2-13,3.8-15.4,9.8-.4.9-1.8,1.8-2.3.3-.8-2.2-2-4.3-3.5-6.2-3.8-4.6-9.3-7.4-15.4-8l-14-1.4c-.6,0-1.1,0-1.7-.1-11-.3-20.7,7.3-22.4,17.5l-1.3,7.7c-.5-4.6-2.6-8.6-6-11.5-2.9-2.4-6.6-3.8-10.4-3.9-1.3,0-2.6,0-3.9.4-4.3.9-8.4,3.5-11.1,7.2-.4.6-1.3.6-1.8,0-4.2-5.7-11.2-9.6-19.1-10.1-.4,0-.7,0-1.1,0-9.4-.2-17.8,4.5-21.9,11.7-.5.9-1.8,1.1-2.6.3-1.2-1.2-2.5-2.3-4.1-3.3-3.7-2.4-8.3-4-13.2-4.4,1.4-2,2.2-4.2,2.4-6.5,0-.8.9-1.1,1.6-.7l1.2.8c2.6,1.8,5.4,2.8,8.3,2.9h0c2.1,0,4.1-.4,6-1.3,3.5-1.7,6.2-4.9,7.4-8.7,2.1,1.6,4.6,2.8,7.3,3.2l2.9.5c.8.1,1.6.2,2.4.2,3.9,0,7.7-1.2,10.7-3.6,3.7-3,5.8-7.4,6-12.2,0,0,.1-5.4.1-6.3,0-.9.7-1.1.9,0,.7,8,1.2,14.8,1.2,14.9.3,3.3,1.7,6.4,3.9,8.7,1.8,1.8,4.9,4,9.8,4.4.4,0,.7.1,1.1.1s.4,0,.6,0l20.5-1.4c.1,0,.3,0,.4,0,8.5-1.2,14.9-5.5,18.5-12.4.2-.3.3-.6.4-.9.4-.8,1.5-1,2.1-.3,1.2,1.2,2.8,2.3,4.9,3.3.5.3,1,.5,1.6.7l20.1,5.6c.1,0,.3,0,.4,0,1.9.4,3.7.6,5.5.6,17.3.4,25-14.8,28.4-28.2,0-.3.7-1.2,1.3-.5l4.7,5.6c.4.4.5,1,.3,1.6l-3.4,11.6c-1.3,4.5-.7,9.2,1.6,13.3l-8.5-1Z"/>
      <path class="st41" d="M249.6,90.3c-4.8-4.6-11.4-7.6-17.9-8.2l-10.6-1c-.5,0-1,0-1.5,0-6.9,0-12.9,4.2-15.2,10.4-.4,1-1.7,1.9-2.3.4-.8-2.2-2.1-4.3-3.7-6.2-3.9-4.6-9.4-7.3-15.6-7.8l-14.2-1c-.6,0-1.2,0-1.7,0-11.2,0-20.9,8-22.5,18.6l-1.2,8c-.6-4.8-2.7-8.8-6.3-11.7-3-2.4-6.8-3.8-10.8-3.8s-2.7.2-4,.5c-4.4,1.1-8.6,3.8-11.3,7.8-.4.6-1.4.6-1.8,0-4.4-5.8-11.6-9.7-19.9-10-.4,0-.7,0-1.1,0-9.8,0-18.6,5.2-22.8,12.8-.6,1-1.9,1.2-2.7.4-1.2-1.2-2.7-2.4-4.3-3.4-4.5-2.8-10.2-4.3-16.3-4.3s-12.2,1.5-17.8,4.2c-11.7,5.8-19,16.4-20.2,29.1-1.1,12.4,2.3,24.1,9.3,32.1,5.9,6.7,13.9,10.5,23.1,11,1.1,0,2.2,0,3.3,0,7.1,0,13.3-1.2,19.4-3.8,8.3-3.5,12.4-10.9,12.6-17.9,0-.7.8-1.1,1.4-.8,3.8,2,8.1,3,12.6,3s1.7,0,2.5-.1l4.6-.4c7.3-.7,13.9-4.1,18.2-9.5,0,0,0,0,0,0,.6-.8,1.8-.5,1.9.5l1.6,10c1.3,8,8.3,14.1,16.3,14.1h0s.2,0,.2,0c.6,0,1.1,0,1.5,0l24.9-2.6c4.7-.4,11-3.5,14.6-9.3,2.8-4.5,3.3-9.8,1.3-14.8-.2-.4-.4-.9-.6-1.3-.4-.8.3-1.8,1.2-1.7l3.4.3c.7,0,1.5.1,2.2.1,7.2,0,13.7-3.2,17.8-8.2.5-.6,1.4-.2,1.3.6-.7,4.7-1.3,8-1.3,8-.8,4.6.5,9.3,3.3,12.9,2.9,3.6,7.3,5.9,11.9,6.2.4,0,.7,0,1.1,0,4.1,0,8-1.5,11-4.2.2-.1.3-.3.5-.5,1-.9,2.5-.8,3.3.4h0c0,.2.2.4.3.5h0c0,.2.2.3.3.5,3.2,3.6,7.3,5.6,11.6,5.6h0c3,0,5.9-1,8.4-2.8,3.5-2.5,5.7-6.2,6.1-10.3.5-4.6-1.3-9.4-4.8-13.3h0c-.7-.9-.6-2,0-2.7,4-4.4,6.6-10.1,6.9-16.1v-.9c.5-7-2.3-13.8-7.8-19.1ZM43.8,129.4c-2.5,1.3-7.3,2.9-7-.3.2-1.4.8-2.3,1.6-2.7.6-.3,1.3-.4,2.2-.4,1.6,0,3.6.5,5.6,1.4.1,0,.2,0,.4.1.3.1,0,.6-.4.8-.8.3-1.7.7-2.5,1.1ZM144.3,126.9l-.3-6.1c0-.4.5-.5.6-.2.6,1,1.2,2.1,2,3,.6.8,1.3,1.6,2.1,2.3s.2,1-.3,1.1l-2.9.6c-.6.1-1.1-.3-1.1-.8Z"/>
      <path class="st44" d="M247.4,88.7c-4.8-4.6-11.4-7.6-17.9-8.2l-10.6-1c-.5,0-1,0-1.5,0-6.9,0-12.9,4.2-15.2,10.4-.4,1-1.7,1.9-2.3.4-.8-2.2-2.1-4.3-3.7-6.2-3.9-4.6-9.4-7.3-15.6-7.8l-14.2-1c-.6,0-1.2,0-1.7,0-11.2,0-20.9,8-22.5,18.6l-1.2,8c-.6-4.8-2.7-8.8-6.3-11.7-3-2.4-6.8-3.8-10.8-3.8s-2.7.2-4,.5c-4.4,1.1-8.6,3.8-11.3,7.8s-1.4.6-1.8,0c-4.4-5.8-11.6-9.7-19.9-10-.4,0-.7,0-1.1,0-9.8,0-18.6,5.2-22.8,12.8-.6,1-1.9,1.2-2.7.4-1.2-1.2-2.7-2.4-4.3-3.4-4.5-2.8-10.2-4.3-16.3-4.3s-12.2,1.5-17.8,4.2c-11.7,5.8-19,16.4-20.2,29.1-1.1,12.4,2.3,24.1,9.3,32.1,5.9,6.7,13.9,10.5,23.1,11,1.1,0,2.2,0,3.3,0,7.1,0,13.3-1.2,19.4-3.8,8.3-3.5,12.4-10.9,12.6-17.9,0-.7.8-1.1,1.4-.8,3.8,2,8.1,3,12.6,3s1.7,0,2.5-.1l4.6-.4c7.3-.7,13.9-4.1,18.2-9.5,0,0,0,0,0,0,.6-.8,1.8-.5,1.9.5l1.6,10c1.3,8,8.3,14.1,16.3,14.1h0s.2,0,.2,0c.6,0,1.1,0,1.5,0l24.9-2.6c4.7-.4,11-3.5,14.6-9.3,2.8-4.5,3.3-9.8,1.3-14.8-.2-.4-.4-.9-.6-1.3-.4-.8.3-1.8,1.2-1.7l3.4.3c.7,0,1.5.1,2.2.1,7.2,0,13.7-3.2,17.8-8.2.5-.6,1.4-.2,1.3.6-.7,4.7-1.3,8-1.3,8-.8,4.6.5,9.3,3.3,12.9,2.9,3.6,7.3,5.9,11.9,6.2.4,0,.7,0,1.1,0,4.1,0,8-1.5,11-4.2.2-.1.3-.3.5-.5,1-.9,2.5-.8,3.3.4h0c0,.2.2.4.3.5h0c0,.2.2.3.3.5,3.2,3.6,7.3,5.6,11.6,5.6h0c3,0,5.9-1,8.4-2.8,3.5-2.5,5.7-6.2,6.1-10.3.5-4.6-1.3-9.4-4.8-13.3h0c-.7-.9-.6-2,0-2.7,4-4.4,6.6-10.1,6.9-16.1v-.9c.5-7-2.3-13.8-7.8-19.1ZM41.7,127.8c-2.5,1.3-7.3,2.9-7-.3.2-1.4.8-2.3,1.6-2.7.6-.3,1.3-.4,2.2-.4,1.6,0,3.6.5,5.6,1.4.1,0,.2,0,.4.1.3.1,0,.6-.4.8-.8.3-1.7.7-2.5,1.1ZM142.1,125.3l-.3-6.1c0-.4.5-.5.6-.2.6,1,1.2,2.1,2,3,.6.8,1.3,1.6,2.1,2.3.4.4.2,1-.3,1.1l-2.9.6c-.6.1-1.1-.3-1.1-.8Z"/>
      <g>
        <path class="st41" d="M277.7,35.9c-.3-4.7-2.7-9-6.6-11.7-2.7-1.9-5.9-2.9-9.2-2.9s-2.2.1-3.2.3c-3.6.7-6.9,2.7-9.2,5.6s-1.7.7-2.3,0l-1.9-2.7c-2.4-3.5-6.1-5.9-10.4-6.5-.8-.1-1.7-.2-2.5-.2-3.4,0-6.7,1.1-9.5,3.2-.3.2-.5.4-.8.6-3.9-7-10.5-11.9-19.3-14.3l-11.2-3.7c-.6-.3-1.3-.5-2-.7h-.3c-.6-.3-1.1-.4-1.7-.4-.7,0-1.4-.1-2.1-.1-6,0-11.3,3.1-14,8.4h0c-.2.5-.4.9-.5,1.3,0,0-3.8,14.2-6.9,26.2-.2.8-1.3.7-1.5,0-1.7-7.6-5.1-13.9-9.9-18.3-5.3-4.9-12.3-7.4-20.3-7.4s-2.2,0-3.3.1l-11.8.4c-.2,0-.3,0-.5,0-.5,0-1.1,0-1.6,0h-.4c-.6,0-1.2.2-1.7.3-2.9.7-5.5,2.1-7.5,4-.5.4-1.2.1-1.5-1.3-1.4-7.5-7.7-13.3-15.6-13.3s-15.8,7-15.8,15.6,1,6.3,2.7,8.8c.2.4.2.9-.2,1.1-2.3,1.7-4,4-5.2,6.5-.2.4-.8.4-1,0s-.4-1-.6-1.6c-2.7-5.6-8.8-9.6-15.2-9.8-.2,0-.4,0-.6,0-5.1,0-9.5,2.5-12,6.7,0,0-3.7,6.1-4.1,7-.4.8-.9.3-1,.1-2.1-6.4-7.7-10.5-14.2-10.5s-.7,0-1,0c-7.2.5-13.2,5.7-14.6,12.6-.3,1.7-.3,3.4,0,5.2,0,0,8.6,42.2,8.6,42.2,1.2,5.4,4.8,9.4,9.9,11,1.5.5,3.2.7,4.9.7h0c4.7,0,9.1-.5,12.4-3.7,1-.9,2.2-3.3,2.9-4.3,1.3-2,2-4.1,2.2-6.4,0-.8,1-1.2,1.6-.8l1.2.8c2.7,1.8,5.7,2.8,8.7,2.8h0c2.2,0,4.3-.5,6.3-1.5,3.7-1.9,6.4-5.3,7.7-9.3,2.2,1.7,4.9,2.7,7.7,3.2l3,.5c.8.1,1.7.2,2.5.2,4.1,0,8-1.4,11.1-4,3.8-3.2,6-7.8,6-12.7,0,0,0-5.6,0-6.6s.8-1.2.9,0c.8,8.3,1.4,15.3,1.4,15.3.3,3.4,1.8,6.6,4.2,8.9,1.8,1.9,5.1,4.1,10.1,4.3.4,0,.7.1,1.1.1s.4,0,.6,0l21-2h.4c8.6-1.5,15.1-6.1,18.6-13.2.2-.3.3-.6.4-.9.4-.8,1.5-1,2.2-.4,1.2,1.2,2.9,2.3,5,3.2.5.3,1,.5,1.6.7l20.4,5.3h.4c1.9.4,3.7.6,5.5.6,17.4,0,24.7-15.7,27.8-29.3s.7-1.2,1.3-.5l4.8,5.5c.4.4.5,1.1.4,1.6l-3.2,11.9c-1.3,4.7-.5,9.6,2.1,13.8,2.6,4.1,6.7,6.9,11.6,7.8,1.1.2,2.2.3,3.3.3,4.1,0,8.1-1.5,11.3-4.1,4.1-3.4,6.3-8.4,6.2-13.7l-.2-11.9c0-.8.3-1.6.9-2.1l10.1-9.6c3.4-3.3,5.2-7.8,4.8-12.5ZM64.5,58.5l-4.7-2.1,5.9-5.7c.1-.1.2-.2.3-.4h0c0-.2.2-.3.3-.4.4-.5.7-1,1-1.5l-1.7,10.8c-.2-.1-.4-.2-.6-.4-.2-.1-.4-.2-.6-.3Z"/>
        <ellipse class="st103" cx="86.4" cy="17.6" rx="9.6" ry="9.5"/>
        <path class="st103" d="M85.9,30.4h0c-3-.6-6,0-8.5,1.6-2.5,1.7-4.1,4.3-4.6,7.2l-3.3,20.6c-.5,2.9.2,5.8,2,8.1,1.7,2.4,4.3,3.9,7.2,4.3l3,.5c.5,0,1.1.1,1.6.1,2.6,0,5.1-.9,7.1-2.6,2.4-2,3.8-5,3.8-8.1l.3-21.1c0-5.1-3.5-9.7-8.6-10.7Z"/>
        <path class="st103" d="M59.7,63.1l-11.3-5.1c-.4-.2-.6-.5-.7-.9,0-.4,0-.8.4-1.1l11.1-10.7h0c2.5-3.4,3-6.9,1.5-10.1-1.7-3.6-5.7-6.1-9.8-6.3-3.1-.1-5.6,1.2-7,3.7l-11.4,19.3c-.2.3-.5.5-.9.4-.4,0-.6-.3-.7-.7l-3.3-13.1c-1.4-4.1-4.8-6.5-8.9-6.2-4.4.3-8.1,3.4-8.9,7.6-.2.9-.2,1.8,0,2.8l8.6,42.1c.7,3.2,2.7,5.4,5.7,6.3,1,.3,2,.4,3,.4,3.1,0,6.3-1.2,8.5-3.4,2.4-2.3,3.3-5.4,2.5-8.5,0,0-2.6-10.2-2.7-10.4-.1-.5,0-.8,0-.9.4-.3,1.1.2,1.1.2l14.4,9.6c2.9,2,6,2.3,8.7.9,2.8-1.4,4.8-4.6,4.9-7.9.1-3.3-1.6-6.2-4.7-8Z"/>
        <path class="st103" d="M155.3,43.8s0-.4,0-.7c-1-8.5-4-15.2-8.8-19.6-4.8-4.4-11.4-6.4-19-5.7l-12.2.4c-.5,0-1.1,0-1.6,0h-.5s0,0,0,0c-2.9.5-5.8,2.3-7.2,5.4-.6,1.3-.8,2.7-.6,4.1v.8c0,0,3.9,41.8,3.9,41.8.4,3.6,3,7.7,9.1,7.7,0,0,0,0,.1,0h0c0,0,21-1.9,21-1.9,13.4-2.2,18.8-13.2,16.1-32.4h0ZM136.3,55.5c-.6.8-1.6,1.2-3,1.3l-3.9.3c-.9,0-1.8-.6-1.9-1.6l-2.5-17.3c0-.4,0-.8.3-1.2.3-.3.7-.5,1.1-.6l3.2-.2c.2,0,.5,0,.7,0,3.2,0,5.3,3.3,6.5,10,0,.4.1.8.2,1.2.4,3,.6,6.4-.8,8.1Z"/>
        <path class="st103" d="M199,12.1l-11.6-3.8c-.5-.2-1-.4-1.6-.5h-.5c0-.1,0-.1,0-.1-3.6-.7-8.1.6-10.3,4.9h0c0,0-11.3,42.7-11.3,42.7-.9,3.5.2,8.3,6,10.4h0c0,0,20.4,5.4,20.4,5.4,1.5.3,2.9.4,4.3.4,10.9,0,18.3-8.5,21.9-25.4h0s0-.4.2-.7c2-8.3,1.4-15.7-1.5-21.4-3-5.8-8.5-9.9-15.9-11.8ZM198.2,42c0,.4-.2.8-.2,1.2-.7,3-1.6,6.2-3.5,7.3-.9.5-2,.6-3.3.2l-3.7-1c-.9-.3-1.5-1.2-1.3-2.1l3.6-17.1c0-.4.3-.8.7-1,.4-.2.8-.3,1.2-.2l3.1.9c3.5.7,4.6,4.6,3.4,11.8Z"/>
        <path class="st44" d="M275.5,34.8c-.3-4.7-2.7-9-6.6-11.7-2.7-1.9-5.9-2.9-9.2-2.9s-2.2.1-3.2.3c-3.6.7-6.9,2.7-9.2,5.6-.6.7-1.7.7-2.3,0l-1.9-2.7c-2.4-3.5-6.1-5.9-10.4-6.5-.8-.1-1.7-.2-2.5-.2-3.4,0-6.7,1.1-9.5,3.2-.3.2-.5.4-.8.6-3.9-7-10.5-11.9-19.3-14.3l-11.2-3.7c-.6-.3-1.3-.5-2-.7h-.3c-.6-.3-1.1-.4-1.7-.4-.7,0-1.4-.1-2.1-.1-6,0-11.3,3.1-14,8.4h0c-.2.5-.4.9-.5,1.3,0,0-3.8,14.2-6.9,26.2-.2.8-1.3.7-1.5,0-1.7-7.6-5.1-13.9-9.9-18.3-5.3-4.9-12.3-7.4-20.3-7.4s-2.2,0-3.3.1l-11.8.4c-.2,0-.3,0-.5,0-.5,0-1.1,0-1.6,0h-.4c-.6,0-1.2.2-1.7.3-2.9.7-5.5,2.1-7.5,4-.5.4-1.2.1-1.5-1.3-1.4-7.5-7.7-13.3-15.6-13.3s-15.8,7-15.8,15.6,1,6.3,2.7,8.8c.2.4.2.9-.2,1.1-2.3,1.7-4,4-5.2,6.5-.2.4-.8.4-1,0s-.4-1-.6-1.6c-2.7-5.6-8.8-9.6-15.2-9.8-.2,0-.4,0-.6,0-5.1,0-9.5,2.5-12,6.7,0,0-3.7,6.1-4.1,7-.4.8-.9.3-1,.1-2.1-6.4-7.7-10.5-14.2-10.5s-.7,0-1,0c-7.2.5-13.2,5.7-14.6,12.6-.3,1.7-.3,3.4,0,5.2,0,0,8.6,42.2,8.6,42.2,1.2,5.4,4.8,9.4,9.9,11,1.5.5,3.2.7,4.9.7h0c4.7,0,9.5-1.9,12.8-5.1,2.7-2.6,4.3-5.9,4.6-9.4,0-.8,1-1.2,1.6-.8l1.2.8c2.7,1.8,5.7,2.8,8.7,2.8h0c2.2,0,4.3-.5,6.3-1.5,3.7-1.9,6.4-5.3,7.7-9.3,2.2,1.7,4.9,2.7,7.7,3.2l3,.5c.8.1,1.7.2,2.5.2,4.1,0,8-1.4,11.1-4,3.8-3.2,6-7.8,6-12.7,0,0,0-5.6,0-6.6s.8-1.2.9,0c.8,8.3,1.4,15.3,1.4,15.3.3,3.4,1.8,6.6,4.2,8.9,1.8,1.9,5.1,4.1,10.1,4.3.4,0,.7.1,1.1.1s.4,0,.6,0l21-2h.4c8.6-1.5,15.1-6.1,18.6-13.2.2-.3.3-.6.4-.9.4-.8,1.5-1,2.2-.4,1.2,1.2,2.9,2.3,5,3.2.5.3,1,.5,1.6.7l20.4,5.3h.4c1.9.4,3.7.6,5.5.6,17.4,0,24.7-15.7,27.8-29.3,0-.3.7-1.2,1.3-.5l4.8,5.5c.4.4.5,1.1.4,1.6l-3.2,11.9c-1.3,4.7-.5,9.6,2.1,13.8,2.6,4.1,6.7,6.9,11.6,7.8,1.1.2,2.2.3,3.3.3,4.1,0,8.1-1.5,11.3-4.1,4.1-3.4,6.3-8.4,6.2-13.7l-.2-11.9c0-.8.3-1.6.9-2.1l10.1-9.6c3.4-3.3,5.2-7.8,4.8-12.5ZM62.3,57.4l-4.7-2.1,5.9-5.7c.1-.1.2-.2.3-.4h0c0-.2.2-.3.3-.4.4-.5.7-1,1-1.5l-1.7,10.8c-.2-.1-.4-.2-.6-.4-.2-.1-.4-.2-.6-.3Z"/>
        <path class="st103" d="M269.3,35.3c-.2-2.9-1.7-5.4-4-7.1-2.2-1.6-4.9-2.1-7.6-1.6-2.6.5-4.9,2.2-6.3,4.5l-4.2,6.9c-.3.4-.6.6-.9.6-.3,0-.5-.3-.7-.5l-7.6-11.1c-1.5-2.1-3.7-3.5-6.2-3.9-2.6-.4-5.1.2-7.1,1.8-2,1.6-3.3,3.8-3.6,6.4-.3,2.6.5,5,2.2,7l11.6,13.5c.6.7.7,1.2.5,2l-3.9,14.8c-.8,3.1-.3,6.2,1.4,8.9,1.7,2.7,4.4,4.5,7.5,5.1.7.1,1.4.2,2.1.2,2.7,0,5.2-.9,7.3-2.7,2.6-2.2,4.1-5.4,4-8.8l-.3-14.6c0-.9.2-1.6.9-2.2l12-11.5c2.1-2,3.1-4.8,2.9-7.6Z"/>
      </g>
      <g>
        <g>
          <g>
            <path class="st105" d="M85.7,30.9h0c4.8,1,8.2,5.3,8.1,10.2l-.3,21.1c0,6.2-5.7,10.9-11.9,10l-3-.5c-5.7-.8-9.6-6.1-8.7-11.8l3.3-20.6c.9-5.8,6.6-9.7,12.4-8.4Z"/>
            <g class="st106">
              <path class="st100" d="M74.8,32.7c1.9.6,2.8,2.6,3.2,4.5.5,2.6.1,5.4-.3,8s-.8,5.3-.5,8,1.5,5.4,3.8,6.8c1.8,1.2,3.9,1.5,6,1.6,2.1.1,4.2.1,6.3.7s3.9,2,4.5,4c.5,1.7-.1,3.6-1.3,5s-2.7,2.3-4.4,3.1c-6.2,2.8-13.6,2.8-19.8,0-1.3-.6-2.6-1.4-3.5-2.5-.7-1-1.1-2.3-1.3-3.5-.6-2.9-.9-5.8-.9-8.7,0-6,1-12,2.1-17.9.6-3.2.4-10.8,6.1-9.1Z"/>
              <path class="st21" d="M74.4,32.8c-.9,2.3-7.2,4.6-6.2,6.8,1,2.2-1.5,7.4,11,5.8,12.5-1.6,9.8,9.1,14.7,13.6,1,.9,2.1,1.9,3.4,2.2,1.6.4,3.4-.2,4.8-1.1,3.5-2.4,5.2-6.9,4.8-11-.4-4.2-2.7-8.1-5.7-11-3-3-6.7-5.1-10.6-6.9-3.2-1.5-6.6-2.8-10.1-3.3-2.9-.4-5.1,2.4-6.1,4.9Z"/>
            </g>
          </g>
          <g>
            <ellipse class="st105" cx="86.4" cy="17.6" rx="9.6" ry="9.5"/>
            <g class="st73">
              <path class="st14" d="M73.4,17.9c-.7-2.6,0-5.5,1.9-7.4.9-.9,2.2-1.6,3.3-1.2.8.3,1.3,1.2,1.6,2,.3.9.3,1.8.7,2.6.8,2.3,3.2,3.8,5.6,4.4,2.4.6,4.9.6,7.4,1s5,1.3,6.5,3.3c.9,1.1,1.3,2.8.6,4-.7,1.1-2,1.6-3.3,1.9-5.7,1.3-11.8,1.2-17.4-.5-2.4-.7-4.9-1.8-6.2-3.8-1.6-2.4-1.4-5.7-.8-8.5"/>
              <path class="st22" d="M86.7,5.2c-1.9.3-3,2.4-2.8,4.2.3,1.8,1.6,3.4,3,4.6,1.2,1,2.6,1.9,4.1,2.2s3.2,0,4.4-1c1.4-1.2,1.7-3.4,1.1-5.1-.6-1.7-2-3.1-3.6-4s-3.4-1.5-5.2-2c-.7-.2-1.4-.4-2.2-.4s-1.5.3-1.9.9"/>
              <path class="st16" d="M74.5,11.7c1.3-1.2,2.8-2.2,4.5-2.9,1.1-.5,2.5-.9,3.6-.4,1.3.6,1.9,2.2,1.8,3.7-.1,1.4-.8,2.8-1.3,4.1-.5,1.4-.9,2.9-.5,4.2.5,1.7,2.2,3.1,2,4.8-.1,1.4-1.4,2.5-2.8,2.6-1.4.1-2.8-.5-3.8-1.5-1-1-1.7-2.2-2.4-3.4-1-1.9-2-4-2.1-6.2,0-2.2,1.1-4.6,3.2-5.3"/>
            </g>
          </g>
        </g>
        <path class="st101" d="M77.1,47.8c-1.7.7-2.9,2.3-3.3,4.1,0,.4-.1,1,.2,1.3.2.2.6.3.9.3s.6-.2.9-.3c1.5-.8,2.6-2.3,3-3.9.4-1.4-.5-2-1.7-1.4Z"/>
        <path class="st101" d="M78.7,54.9c-1-.4-2.1.1-3.1.6-.9.5-1.9.9-2.6,1.7-.9,1-1.1,2.5-1.1,3.8,0,1.8.4,3.6,1.3,5.1s2.4,2.7,4.2,3.1c1.7.4,3.7-.2,4.8-1.7.7-.9,1-2,1-3.1.1-1.9-.5-3.9-1.7-5.5-.5-.6-1.3-1.1-1.5-1.9-.3-.9-.2-1.7-1.3-2.1Z"/>
        <g class="st55">
          <path class="st44" d="M82,32.1c2.9-.3,5.7,1,7.4,3.1.5.7.4,1.7-.3,2.2-.6.5-1.5.4-2,0-1.2-1.1-3.1-1.5-4.5-1.1-1.1.4-2.3-.3-2.7-1.4-.4-1.3.6-2.8,2-2.8h0Z"/>
        </g>
        <g class="st55">
          <path class="st44" d="M90.6,43l-2.6,18.9c0,.4-.8.4-.7,0,0,0,2.4-18.9,2.4-18.9,0-.6,1.1-.5,1,.1h0Z"/>
        </g>
        <path class="st45" d="M81,61.3c0,.4,0,.9.2,1.3.3.4.8.6,1.3.6s.9-.3,1.3-.6c.4-.4.7-.8.8-1.4.1-.5,0-1.1-.4-1.5-1.2-1.4-3,.4-3.3,1.7Z"/>
        <path class="st45" d="M86,63.6c.2.2-.1.5-.4.5s-.6.1-.7,0c-.2-.3.7-1,1.1-.5Z"/>
        <path class="st45" d="M85.9,47.5c.3,0,.5-.3.7-.5.6-.7.9-2.7-.6-2.1s-1.5,2.9-.1,2.5Z"/>
        <path class="st101" d="M80.4,16.2c0,.3-.1.7.1.9.2.2.5.2.7,0s.4-.3.5-.5c.3-.4.4-.9.4-1.3,0-.5-.2-1.1-.8-.8s-.9,1.2-1,1.7Z"/>
        <path class="st101" d="M83.3,25.4c1.2.4,2.5,0,3.3-.8,3.9-4.3-7.1-7.9-5.8-1.9s1.2,2.3,2.4,2.7Z"/>
        <path class="st45" d="M89.2,13.4c.5.3,1.2,0,1.5-.5.5-.9-.4-2.5-1.5-2.1-1,.4-.8,2.1,0,2.6Z"/>
        <g>
          <path class="st9" d="M85.7,30.9h0c4.8,1,8.2,5.3,8.1,10.2l-.3,21.1c0,6.2-5.7,10.9-11.9,10l-3-.5c-5.7-.8-9.6-6.1-8.7-11.8l3.3-20.6c.9-5.8,6.6-9.7,12.4-8.4Z"/>
          <ellipse class="st9" cx="86.4" cy="17.6" rx="9.6" ry="9.5"/>
        </g>
      </g>
      <g>
        <g>
          <path class="st63" d="M59.4,63.5l-11.3-5.1c-1.2-.5-1.4-2.1-.5-3l11.1-10.7c8.5-11.2-9.3-20.8-14.3-12.1l-11.4,19.3c-.7,1.1-2.4.9-2.7-.4l-3.3-13.1c-3-8.7-14-6.8-16.4.3-.4,1.3-.5,2.7-.2,4l8.5,41.8c2.4,11.4,21.4,5.9,18.6-4.9,0,0-2.6-10.2-2.7-10.4,0-.2-.3-1.2.2-1.5.8-.6,1.8.3,1.8.3l14.4,9.6c9.7,6.6,18.2-8.2,8.2-14Z"/>
          <g class="st76">
            <path class="st13" d="M8.7,39.5c-1.6,6,.6,12.3.8,18.5.2,4.7-.7,9.4-1,14.1s.1,9.7,2.7,13.6c2.4,3.7,6.5,6,10.7,7.1,4.3,1.1,8.7.9,13.1.3,5.7-.7,11.3-2.2,16.9-3.6,5.7-1.5,11.7-3.1,16.1-7.1,2.8-2.6,4.7-6.1,5.3-9.9.4-2.6.2-5.4-1.5-7.4-1.2-1.4-2.9-2.2-4.5-3.1-1.6-1-3.1-2.3-3.5-4.1-.6-3,2.4-5.4,4.2-7.9,4.1-5.5,2.6-13.9-2.2-18.8-4.8-5-12-6.9-18.9-6.8-3.6,0-7.1.6-10.6,1.4-3,.7-6.3,2.2-9.4,2.3-2.3,0-4.4-.4-6.8.3-2.6.7-5,2-7,3.8s-3.8,4.5-4.5,7.3Z"/>
            <path class="st10" d="M8.2,44.2c.8-1.5,2.4-2.6,4.1-2.3,1.4.3,2.5,1.5,3.2,2.8,2.3,3.9,3.1,8.6,3.6,13.1.6,4.5,1.1,9.2,3,13.3,1.9,4.2,5.5,7.9,10,8.5,1.9.3,4,0,5.7,1,2.1,1.1,3,3.8,2.4,6.1s-2.3,4.2-4.3,5.3c-2,1.2-4.4,1.8-6.7,2.3-2.6.5-5.2,1-7.8.8-2.6-.2-5.3-1-7.2-2.8-2.8-2.5-3.8-6.3-4.7-9.9-1.5-6.1-3.1-12.3-2.5-18.6.3-3.6,1.3-7.1,1.3-10.7,0-1.7-.5-3-.9-4.5s.2-3.3.9-4.5Z"/>
            <path class="st12" d="M33.1,69.4c-1.1-1.1-2.4-2.6-2-4.1.4-1.7,2.7-2.3,4.4-1.8,1.7.6,3,1.9,4.4,3,3.3,2.6,7.6,4,11.9,3.7,1.9-.1,3.7-.5,5.6-.7,1.9-.2,3.8-.2,5.6.4,1.8.6,3.3,2,3.8,3.9.3,1.1,0,2.3-.3,3.5-.8,2.4-2.6,4.4-4.8,5.6-2.2,1.2-4.9,1.5-7.4.9-3.1-.8-5.6-3-8.1-5.1-1.2-1.1-2.4-2.1-3.6-3.2s-1.4-.9-2.7-.9c-2.6,0-4.9-3.5-6.6-5.1Z"/>
            <path class="st11" d="M47.9,60.1c-1.5-.5-3-1.3-3.8-2.7-.9-1.8-.2-4.1,1.1-5.7,1.3-1.6,3.1-2.6,4.7-3.9s3.2-2.8,3.6-4.8c.3-1.4,0-2.8.4-4.1.6-2.4,3.4-4,5.9-3.5,2.5.5,4.4,2.8,4.7,5.3.5,3.5-1.8,6.7-3.9,9.5-2.2,2.8-4.4,5.6-6.4,8.5-1.5,2.1-3.8,2.6-6.2,1.3Z"/>
            <path class="st18" d="M9.5,35.5c-.7.8-1.4,1.8-1,2.8.4,1,1.7,1.2,2.8,1,1-.2,2-.8,3.1-.8,1.8,0,3.3,1.6,4.3,3.1,2.2,3.3,3.7,7.1,4.4,11.1.3,1.9.5,4,2,5.2,1.5,1.2,3.8,1,5.3-.3,1.5-1.2,2.2-3.2,2.3-5.1.1-1.9-.3-3.8-.7-5.7-.9-4.2-1.9-8.4-4.1-12.2-.9-1.5-2-3-3.5-3.9-4.8-2.8-11.6,1.4-14.9,4.8Z"/>
            <path class="st85" d="M35.2,39.9c0,1.4.2,3,1.4,3.9,1,.7,2.4.6,3.5.2,1.2-.4,2.2-1.1,3.4-1.4,3.1-.9,6.3.5,9.2,2s6.1,2.9,9.2,2.1c2.9-.7,5-3.4,5.5-6.3.5-2.9-.6-5.9-2.6-8.2-1.9-2.2-4.6-3.7-7.4-4.6-4.2-1.3-8.7-1.3-12.9,0-3.5,1-5.2,2.3-7,5.4-1.2,2.2-2.1,4.5-2.3,7Z"/>
            <path class="st83" d="M55.1,57.6c-2.9-.7-6.2.2-8.4,2.2-.7.6-1.3,1.5-1.3,2.4,0,1.4,1.6,2.3,3,2.5s2.8-.1,4.2.1c2.3.5,3.9,2.3,5.4,4,1.5,1.7,3.3,3.5,5.6,3.7,2.4.2,4.7-1.6,5.5-3.9.8-2.3,0-4.9-1.4-6.8-1.4-1.9-3.6-3.2-5.9-4.1-2.3-.8-4.7-1.2-7.1-1.6-.2.5-.2,1.1.1,1.5Z"/>
          </g>
        </g>
        <g class="st51">
          <path class="st44" d="M32.6,65.9c-.1,4.2.1,8.5.7,12.7,0,.4-.6.5-.6.1-.8-4.2-1.1-8.5-1.1-12.8,0-.7,1-.6,1,0h0Z"/>
        </g>
        <g class="st51">
          <path class="st44" d="M47.5,61.1c3.5.7,6.9,2.2,9.8,4.3,1.4,1.1,2.9,2.3,3.7,4,.9,1.8.5,4.3-1.5,5.3-.6.3-1-.6-.4-.9,1.4-.7,1.7-2.7,1.1-4-2.5-4.4-8-7-12.8-8.1-.4,0-.3-.7.1-.6h0Z"/>
        </g>
        <g class="st51">
          <path class="st44" d="M53.4,32.6c3.5,2.7,4.5,7.9,2.2,11.7-.2.4-.8,0-.6-.3,1.9-3.5.9-8.3-2.3-10.7-.5-.4.1-1.2.6-.8h0Z"/>
        </g>
        <g class="st51">
          <path class="st44" d="M18.2,35.9c5.4.4,7,7.1,8.3,11.4.1.4-.5.6-.6.2-1.2-3.8-2.9-10.3-7.7-10.6-.7,0-.7-1,0-1h0Z"/>
        </g>
        <g>
          <path class="st45" d="M24.5,52.9c.6.2,1.2,0,1.8-.4.4-.2.8-.5,1-.9.7-1.3-1.3-2.4-2.3-1.8s-1.8,2.5-.4,3.1Z"/>
          <path class="st45" d="M30.5,83.4c0,.4.2.7.5.9.4.2.9.2,1.3,0s.7-.5.9-.9c.5-.9,0-2-1.2-2.1s-1.7,1.2-1.6,2.1Z"/>
          <path class="st45" d="M30.1,80.2c0,.1,0,.3,0,.4,0,0,.2,0,.3,0s.2,0,.2-.1c.1,0,.3-.2.3-.3s.1-.3,0-.4c-.2-.5-.8.2-.9.4Z"/>
          <path class="st45" d="M54.8,71c0,.3,0,.7.2.9.2.2.6.1.9,0,1-.5,1.5-1.7,1.2-2.7,0-.2-.1-.4-.3-.6-.9-.8-1.9,1.9-2,2.4Z"/>
          <path class="st45" d="M57.8,71c-.1.2-.1.4,0,.6s.4.2.6.1.3-.4.2-.6c0-.2-.3-.3-.5-.4"/>
          <path class="st45" d="M46.7,72.1c0,.2,0,.5.3.6s.5,0,.6-.2,0-.5-.2-.6c-.2-.1-.5,0-.7,0"/>
          <path class="st45" d="M50,48.9c0,.3,0,.6.2.8s.4.4.7.4c.4,0,.8-.3,1.1-.7.3-.4.5-.8.6-1.2.2-.8-.4-2-1.4-1.7s-1.3,1.6-1.3,2.4Z"/>
          <path class="st45" d="M49.5,45.7c0,.2,0,.4-.1.6.2,0,.3,0,.5-.1s.2-.3.2-.4c0-.2-.2-.3-.4-.2"/>
          <path class="st45" d="M58.6,39.6c-.2.2-.4.4-.5.7s0,.6.4.6c.2,0,.3,0,.4-.2s.2-.3.2-.4c0-.1.1-.3.1-.4s0-.3-.2-.4-.3,0-.4,0"/>
        </g>
        <path class="st3" d="M59.4,63.5l-11.3-5.1c-1.2-.5-1.4-2.1-.5-3l11.1-10.7c8.5-11.2-9.3-20.8-14.3-12.1l-11.4,19.3c-.7,1.1-2.4.9-2.7-.4l-3.3-13.1c-3.1-9.1-15.1-6.6-16.7,1.3-.2.9-.1,1.7,0,2.6l8.6,42.1c2.4,11.4,21.4,5.9,18.6-4.9,0,0-2.6-10.2-2.7-10.4,0-.2-.3-1.2.2-1.5.8-.6,1.8.3,1.8.3l14.4,9.6c9.7,6.6,18.2-8.2,8.2-14Z"/>
      </g>
      <g>
        <g>
          <path class="st1" d="M154.7,43.9s0-.4,0-.7c-2-16.9-11.9-26.1-27.2-24.8l-12.3.4c-.5,0-1,0-1.5,0h0s0,0,0,0c-3.8.4-7.4,3.2-8,7.7l4,43.8c.5,5.2,4.8,7.4,9.2,7.2h0s20.3-1.9,20.3-1.9c7.7-1.3,19.2-6.4,15.6-31.8ZM133.3,57.4l-3.9.3c-1.3,0-2.4-.8-2.6-2.1l-2.5-17.3c-.2-1.2.7-2.3,1.9-2.4l3.2-.2c4.7-.7,6.8,4.6,7.9,10.4,0,.4.1.8.2,1.3.7,5.8.4,9.7-4.3,10Z"/>
          <g class="st74">
            <path class="st93" d="M100.4,26.6c1.7-2.6,4.5-5.1,7.6-4.7,3.1.4,5.2,3.5,6,6.5,1.2,4.4.6,9.1-.1,13.7-.8,4.5-1.7,9.1-1.1,13.7.6,4.6,3,9.2,7.2,11.1,3.3,1.5,7.2,1.2,10.8.8,4.3-.5,8.6-.9,12.8-1.4,2.7-.3,5.4-.6,8,.2,2.6.8,4.9,2.9,5,5.6.1,2.1-1.2,4.1-2.8,5.4-1.7,1.3-3.7,1.9-5.8,2.5-12.1,3.5-24.8,4.9-37.4,4.1-4.6-.3-9.7-1.2-12.3-4.9-2-2.8-2-6.5-1.9-9.9.2-7.8,0-15.7.7-23.5.5-6.8-.5-13,3.4-19.1Z"/>
            <path class="st94" d="M123.6,49.4c-.8-3.9-1.7-7.9-2.5-11.8-.4-1.7-.7-3.5,0-5,.8-1.8,2.9-2.7,4.8-2.8,3.1-.2,6.3,1.2,8.5,3.5,2.2,2.2,3.7,5.1,4.6,8.1.8,2.4,1.3,5,.9,7.6-.4,2.5-1.7,5-3.9,6.4-5.5,3.5-11.4-.5-12.5-6Z"/>
            <path class="st88" d="M106.6,24.5c1.6,2.7,5.3,3.1,8.3,2.8,3.7-.4,7.3-1.3,11-1.6s7.6.1,10.6,2.2c3.8,2.7,5.5,7.5,9.5,10,3.4,2.1,8.1,1.8,11.2-.7,3.1-2.5,4.3-7.1,2.9-10.8-1.8-4.7-6.9-7.3-11.7-8.9-8.9-3-18.3-4.3-27.7-3.8-4.9.2-18.8,3-14.1,10.9Z"/>
            <path class="st28" d="M103.8,18.1c-2,1.8-3.4,4.4-3.2,7,.2,2,1.3,3.8,2,5.6,2.3,5.4,2,11.5,1.1,17.3-.8,5.8-2.2,11.6-1.8,17.4s2.8,11.9,7.8,15c5.5,3.4,12.6,2.4,19,1.1,4.4-.9,8.8-1.8,13.1-2.8,3.5-.8,7-1.6,10.2-3.2,3.2-1.6,6.1-4,7.7-7.1,1.9-3.9,1.6-8.5,1.3-12.8-.3-3.4-.5-6.9-.8-10.3.4-11.4-6.4-22.7-16.6-27.8-5.6-2.8-11.9-3.8-18.1-4.3-7.3-.6-15.8-.3-21.6,4.9Z"/>
          </g>
        </g>
        <g class="st56">
          <path class="st44" d="M116,22.3c9.3-2.1,19.3-.5,27.4,4.4.4.2,0,.8-.3.6-8-4.7-17.8-6.1-26.8-4-.6.2-.9-.8-.2-1h0Z"/>
        </g>
        <g class="st56">
          <path class="st44" d="M149.4,36.8c1.3,3.3,2.1,6.9,2.1,10.5,0,.2-.2.3-.3.3-.2,0-.3-.1-.3-.3-.1-3.5-.9-7-2.3-10.2-.3-.6.7-1,.9-.4h0Z"/>
        </g>
        <g class="st56">
          <path class="st44" d="M121.2,45.5l2.4,10.1c.1.4-.6.6-.7.2,0,0-2.7-10-2.7-10-.2-.6.8-.9,1-.2h0Z"/>
        </g>
        <g class="st102">
          <path class="st67" d="M114.2,44.5c.6.4.7,1.3.8,2,0,.9,0,1.9-.5,2.6-.4.4-.9.6-1.4.8-.8.3-1.7.6-2.5.9-2.6.9-4.3-2.1-3-4.3.5-.9,1.5-1.3,2.5-1.6,1.1-.3,3.1-1.1,4.2-.4Z"/>
          <path class="st67" d="M111.2,51.6c1.1-.2,2.3,0,3,.8.8.9.8,2.2.8,3.3.2,3.6,1.3,7.1,3.2,10.1.6.9,1.3,2,.9,3-.3,1-1.4,1.4-2.4,1.8-2,.7-4,1.4-6,2.1-.5.2-2.2-11-2.2-12-.1-2.1,0-4.1,0-6.2.1-1.8.8-2.5,2.7-2.9Z"/>
          <path class="st67" d="M117,74.5c-.3.4-.5.9-.2,1.3.3.3.8.2,1.3,0,1.5-.6,2.9-1.6,4-2.8.6-.7,1.2-1.5.8-2.5s-1-1-1.7-.6c-1.7.8-3.2,3.1-4.2,4.6Z"/>
          <path class="st67" d="M124.4,71.5c-.3.3-.5.6-.6,1,0,.4,0,.9.4,1.1.5.2,1.1-.2,1.2-.7s0-1.1-.3-1.6"/>
        </g>
        <g>
          <g>
            <path class="st43" d="M122.9,59.3c-.1.3-.2.7,0,.9.2.2.6.2.8,0,.7-.2,1.2-.8,1.4-1.5,0-.3,0-.7-.1-.9-.7-.9-2,.9-2.2,1.5Z"/>
            <path class="st43" d="M126.3,59.4c-.2,0-.3.3-.2.5s.3.2.5.2.3-.3.3-.5c0-.2,0-.4-.3-.4s-.4,0-.4.3"/>
            <path class="st43" d="M143.5,36.8c-.5.6-.8,1.3-.8,2s.3,1.5,1,1.9c.6.4,1.5.3,2.1-.1s1-1,1.2-1.7c.3-.9.6-3.2-.6-3.6-1-.3-2.3.8-2.9,1.5Z"/>
            <path class="st43" d="M146.1,42.8c.1.2.5.2.7.1.6-.1,1.7-1.1.7-1.5-.6-.2-1.8.6-1.4,1.3Z"/>
            <path class="st43" d="M137.7,38.4c.3,0,.6-.2.8-.4.6-.8-.3-2.3-1.3-1.7-.8.5-.5,2.1.5,2.1Z"/>
          </g>
          <g>
            <path class="st43" d="M140.8,65.6c-.4.5-.7,1.1-.5,1.7.2.6.7.9,1.2,1.2.5.3,1.1.6,1.6.5.6-.1,1.1-.7,1.5-1.2.4-.6.8-1.1,1-1.7.5-1.2,0-3.4-1.6-3.3-1.2.1-2.6,2-3.2,2.9Z"/>
            <path class="st43" d="M147.1,64.6c0,.4-.3.8-.5,1.2s-.3,1,0,1.2c.3.2.8,0,1-.2.2-.3.3-.7.4-1.1,0-.3.1-.6,0-.9s-.5-.5-.7-.3"/>
            <path class="st43" d="M144.7,58.6c-.3.3-.3,1,0,1.3s1,0,1.2-.4-.4-1-.9-.8"/>
            <path class="st43" d="M138.5,71.9c-.3.3,0,.8.4.9.4.1.8,0,1.2-.2.2-.1.5-.2.7-.4s.3-.5.2-.7c-.1-.3-.4-.4-.7-.4s-.5.1-.8.2"/>
          </g>
        </g>
        <path class="st5" d="M154.7,43.9s0-.4,0-.7c-2-16.9-11.9-26.1-27.2-24.8l-12.3.4c-.5,0-1,0-1.5,0h0s0,0,0,0c-3.2.4-6.2,2.4-7.4,5.6-.4,1.1-.5,2.2-.4,3.3l3.9,42.6c.5,5.2,4.8,7.4,9.2,7.2h0s20.3-1.9,20.3-1.9c7.7-1.3,19.2-6.4,15.6-31.8ZM133.3,57.4l-3.9.3c-1.3,0-2.4-.8-2.6-2.1l-2.5-17.3c-.2-1.2.7-2.3,1.9-2.4l3.2-.2c4.7-.7,6.8,4.6,7.9,10.4,0,.4.1.8.2,1.3.7,5.8.4,9.7-4.3,10Z"/>
      </g>
      <g>
        <g>
          <path class="st2" d="M215.7,45.9s0-.4.2-.7c3.9-16.6-2.2-28.6-17-32.5l-11.7-3.8c-.5-.2-1-.4-1.5-.5h0s0,0,0,0c-3.7-.9-8.1.5-10.1,4.5l-11.3,42.6c-1.3,5.1,2,8.6,6.2,9.9h0s19.7,5.2,19.7,5.2c7.7,1.4,20.2.5,25.6-24.6ZM190.9,51.3l-3.7-1c-1.2-.3-2-1.6-1.7-2.8l3.6-17.1c.3-1.2,1.5-1.9,2.7-1.6l3.1.9c4.7,1,4.8,6.7,3.8,12.5,0,.4-.2.8-.3,1.3-1.3,5.7-3,9.2-7.5,8Z"/>
          <g class="st75">
            <path class="st32" d="M167.5,14.3c-1.7,4.3-1.5,9.7,1.8,13,1.5,1.4,3.5,2.4,4.6,4.1.8,1.2,1,2.8,1.2,4.2.8,5,2,9.9,3.5,14.8.8,2.3,1.6,4.6,3.1,6.6,1.5,2,3.6,3.5,6,3.8,3.6.4,7.4-2,10.6-.3,2,1.1,3,3.4,4.9,4.8,1.7,1.2,4,1.5,6.1,1.1,4.7-.7,8.9-4.1,10.6-8.5,1.7-4.4.8-9.7-2.2-13.3-3.2-3.8-8.4-5.9-10.4-10.4-.9-2.1-.9-4.5-1.6-6.8-1-3.5-3.4-6.5-6.5-8.5-3.1-1.9-6.8-2.8-10.4-2.9-2.1,0-4.7,0-5.8-1.8-1.2-1.9-.1-4.5-1.3-6.5-1-1.7-3.2-3.5-5.3-3.3-4,.3-7.6,6.8-8.9,10Z"/>
            <path class="st70" d="M179.4,11.5c1.7.1,3.5.6,4.4,2.1,1.2,1.9.1,4.4-1,6.3-2,3.5-4.1,7.1-5.5,10.9-1.3,3.8-1.8,8.1-.4,12,1.2,3.4,3.8,6.1,5.8,9.1,2,3,3.5,6.8,2.2,10.2-.9,2.5-3.2,4.3-5.7,5.3s-5.2,1.3-7.9,1.5c-2.3.2-4.7.4-6.9-.3-3.8-1.3-6.1-5.3-6.6-9.2s.5-7.9,1.5-11.8c1.6-6.1,3.3-12.2,5.1-18.3s1.8-6.1,2.8-9.2c.7-2.2,1-5.6,3-6.8s6.2-2.1,9.2-1.8Z"/>
            <path class="st69" d="M182.3,39.4c0-3.9,1.9-7.6,4.1-10.8,1.2-1.8,2.7-3.6,4.7-4.3,3-1.1,6.3.4,9,2.2,2.5,1.7,5,3.9,5.8,6.8.9,3.2-.2,6.6-1.5,9.7-.9,2.3-1.9,4.7-4,6.1-1.7,1.2-3.9,1.6-5.9,1.4-6-.4-12.3-4.6-12.3-11.1Z"/>
            <path class="st27" d="M182.3.4c-6.1-.7-11.6,4.1-14,9.7-2.4,5.6-2.6,11.8-3.4,17.8-1,7.4-3,14.8-6.1,21.6-1.5,3.3-3.2,6.7-3.4,10.3-.5,6.9,4.6,13.2,10.8,16.4,6.2,3.1,13.3,3.8,20.3,4.3,5.9.5,12.1.9,17.5-1.5,3.7-1.7,6.7-4.6,9.2-7.7,4.4-5.3,7.7-11.5,9.7-18.1,2.7-8.7,3-18.2.1-26.8-4.7-14.2-18.5-24.9-33.5-26-2.6-.2-4.6.3-7.2,0Z"/>
            <path class="st71" d="M182.6,72.9c-1.7-.5-3.3-1-4.7-2.1-1.4-1-2.4-2.7-2.3-4.4.2-1.7,1.9-3.3,3.6-2.9.7.2,1.3.6,1.9,1,5.8,3.9,14.1,3.6,19.5-.8,1.9-1.6,3.7-3.7,6.2-4.1,2.5-.4,5.2,1.2,6.2,3.6s.6,5.2-.7,7.4c-1.3,2.2-3.4,3.9-5.6,5.2-8.3,4.7-19.6,3.5-26.8-2.8.9,0,1.8-.1,2.7-.2Z"/>
            <path class="st84" d="M190.2,16c2.2.7,4.6.8,6.9,1.4,6,1.5,11.1,6.2,12.9,12,.7,2.1,1,4.3,2.1,6.1,1.1,1.9,3.5,3.3,5.5,2.4,1.7-.7,2.4-2.6,2.7-4.4,1.3-7.5-3.2-15-9.3-19.5-5.4-4-13.2-7.4-20-8.2-7.4-.9-7.1,8-.8,10.1Z"/>
          </g>
        </g>
        <g>
          <g class="st56">
            <path class="st44" d="M187.1,10.6c9.4,1.2,18.2,6.2,24.2,13.5.3.3-.2.8-.5.4-5.9-7.2-14.6-11.9-23.8-13-.6,0-.5-1.1.1-1h0Z"/>
          </g>
          <g class="st56">
            <path class="st44" d="M213.4,35.7c.1,3.6-.5,7.2-1.7,10.6,0,.2-.3.3-.4.2-.2,0-.3-.3-.2-.4,1.1-3.3,1.6-6.9,1.4-10.3,0-.7,1-.7,1,0h0Z"/>
          </g>
          <g class="st56">
            <path class="st44" d="M183.8,34.2l-1.3,10.3c0,.4-.8.4-.7,0,0,0,1-10.3,1-10.3,0-.7,1.1-.5,1,.1h0Z"/>
          </g>
          <g>
            <g>
              <path class="st43" d="M179.6,47.9c-.2.3-.4.6-.2.9.1.3.5.3.8.3.7,0,1.4-.4,1.8-.9.2-.3.3-.6.2-.9-.4-1.1-2.2.2-2.6.6Z"/>
              <path class="st43" d="M183.8,48.9c-.2,0-.4.2-.4.4s.2.3.4.3.4-.2.5-.4c0-.2,0-.4,0-.5s-.4,0-.4.1"/>
              <path class="st43" d="M203.2,23c-.6.4-1.2.9-1.5,1.6s-.2,1.5.3,2.1c.5.6,1.3.8,2,.6.7-.2,1.3-.6,1.8-1.2.6-.7,1.6-2.8.7-3.6-.9-.7-2.4,0-3.2.4Z"/>
              <path class="st43" d="M209.7,49c0,.3.4.4.6.4.6,0,2-.4,1.2-1.1-.5-.4-1.9,0-1.8.8Z"/>
              <path class="st43" d="M209.3,52.6c.3.1.7,0,.9-.1.8-.6.5-2.2-.6-2-1,.2-1.2,1.8-.3,2.2Z"/>
            </g>
            <g>
              <path class="st43" d="M190.3,59.8c-.5.3-1,.8-1.1,1.4,0,.6.4,1.1.7,1.5.4.4.8.9,1.4,1,.6.1,1.3-.3,1.8-.6.6-.4,1.1-.8,1.6-1.3.8-.9,1.3-3.2-.4-3.6-1.2-.3-3.1,1-4,1.6Z"/>
              <path class="st43" d="M196.8,65.3c-.2.4-.6.7-.9.9s-.6.8-.4,1.2c.2.3.7.4,1,.2s.5-.5.7-.9c.2-.3.3-.5.3-.8s-.3-.6-.6-.6"/>
              <path class="st43" d="M183.7,52.2c-.4.2-.6.8-.4,1.2s1,.4,1.2,0c.3-.4,0-1-.5-1"/>
              <path class="st43" d="M191,64.8c-.4.2-.3.8,0,1,.3.2.8.2,1.2.2.3,0,.5,0,.8-.2s.4-.4.4-.6c0-.3-.3-.5-.5-.6s-.5,0-.8,0"/>
            </g>
          </g>
        </g>
        <path class="st4" d="M215.7,45.9s0-.4.2-.7c3.9-16.6-2.2-28.6-17-32.5l-11.7-3.8c-.5-.2-1-.4-1.5-.5h0s0,0,0,0c-3.7-.9-8.1.5-10.1,4.5l-11.3,42.6c-1.3,5.1,1.2,8.4,5.4,9.6l.7.3,19.7,5.1c7.7,1.4,20.2.5,25.6-24.6ZM190.9,51.3l-3.7-1c-1.2-.3-2-1.6-1.7-2.8l3.6-17.1c.3-1.2,1.5-1.9,2.7-1.6l3.1.9c4.7,1,4.8,6.7,3.8,12.5,0,.4-.2.8-.3,1.3-1.3,5.7-3,9.2-7.5,8Z"/>
      </g>
      <g>
        <g>
          <path class="st0" d="M245.2,38.3l-7.6-11.1c-2.8-4.1-8.6-5-12.5-2h0c-4,3-4.6,8.7-1.3,12.5l11.6,13.5c.7.8.9,1.5.6,2.6l-3.9,14.8c-1.6,6,2.3,12.1,8.4,13.3h0c6.7,1.3,12.9-3.9,12.8-10.7l-.3-14.5c-.1-1.1.3-2,1.1-2.7l12-11.5c4.1-3.9,3.6-10.5-1-13.8h0c-4.3-3.1-10.3-1.8-13,2.7l-4.2,6.9c-.9,1.1-1.8,1.1-2.6,0Z"/>
          <g class="st81">
            <path class="st92" d="M226.4,25.2c1.7,1.3,1.7,3.8,2,5.9.5,3.7,2.1,7.1,4.7,9.8,2.8,2.8,6.6,4.9,7.9,8.6,1.7,4.8-1.7,10.2-.9,15.2.5,2.8,2.2,5.3,2.8,8,.8,3.8-.7,8.1-3.9,10.2-3.2,2.1-8,1.8-10.7-1-2.2-2.4-2.8-5.9-2.4-9.1s1.6-6.3,2.5-9.4c.9-3.1,1.3-6.5.3-9.6-1.1-3.2-3.7-5.5-5.4-8.4-1.5-2.8-2.2-5.9-2.8-9-.5-2.5-2.2-6.7-1.3-9.3s5.2-3.6,7.2-2Z"/>
            <path class="st91" d="M262.3,26.8c-2.1,1.4-3.3,4-3.1,6.4,0,1,.4,2,.4,3.1,0,2.3-1.4,4.3-3.1,5.9-1.7,1.5-3.7,2.7-5.3,4.3-1.6,1.6-2.9,3.8-2.6,6.1.4,3,3.6,5.1,6.7,5.2s6-1.4,8.6-3c3.5-2.2,6.8-4.7,9.3-8.1,2.4-3.3,3.9-7.5,3.4-11.6-.8-6.4-7.7-12.5-14.2-8.3Z"/>
            <path class="st90" d="M244.7,30.5c-2,2.3-3.2,5.4-3.3,8.4,0,1.2,0,2.4.9,3.2.8.8,2.2.9,3.3.7,1.7-.4,3.2-1.5,4.2-3,1-1.4,1.6-3.2,1.8-4.9.3-2.5-.4-5.4-2.6-6.7-1.2-.7-3.3,1.1-4.3,2.2Z"/>
          </g>
        </g>
        <path class="st95" d="M234.7,46.9c0,1.1,1.3,1.7,2.1,2.5,1,1,1.5,2.6,1,4-.1.3-.3.6-.3,1s0,.7.4.9c.4.2.8,0,1.2-.1,1.1-.5,2.2-1,3.1-1.7.9-.7,1.7-1.7,2-2.8.6-2.5-1.5-5.8-3.9-6.8-1.7-.7-5.7,1-5.6,3.1Z"/>
        <path class="st95" d="M237.1,69.4c-.3.7-.5,1.5-.2,2.2.3.6.9,1,1.6,1.1,1.4.3,2.8-.4,3.6-1.6.8-1.1,1-2.6.6-4-.3-1.3-1.5-3.5-3.1-2.5-1.4.9-2,3.3-2.5,4.7Z"/>
        <path class="st95" d="M239.3,69.6c.4,1.2-.1,2.5,0,3.8.3,1.8,2.1,3.1,3.9,3.3,1,.1,2,0,3-.1,1.3-.2,2.2,1.4,1.2,2.3s-.8.6-1.3.8c-1.5.6-3.2.5-4.8.2-2.2-.4-4.4-1.3-5.7-3.2-1.3-1.9-1.6-5.1-1-7.3s3.9-1.8,4.6.2Z"/>
        <g class="st52">
          <path class="st44" d="M251.2,56.6c-1,6.1-1.3,12.3-1.1,18.5,0,.4-.6.4-.6,0-.4-6.2-.1-12.5.7-18.7,0-.6,1.1-.5,1,.1h0Z"/>
        </g>
        <g class="st52">
          <path class="st44" d="M264.8,31.8c2.7,5.5-1.8,10.9-5.7,14.3-.3.3-.7-.2-.4-.4,3.5-3.4,7.8-8.4,5.2-13.4-.3-.6.6-1.1.9-.5h0Z"/>
        </g>
        <g class="st52">
          <path class="st44" d="M226.2,27.1c4.3-2.5,8.8,1.4,11.3,4.6.2.3-.2.7-.4.4-2.5-2.9-6.4-6.5-10.4-4.2-.6.4-1.1-.5-.5-.8h0Z"/>
        </g>
        <g>
          <path class="st42" d="M237,33.6c-.4.3-.7.8-.9,1.2,0,.2,0,.4,0,.5.1.2.4.2.6.1s.3-.2.5-.4c.2-.3.5-.5.5-.9s-.3-.7-.6-.6"/>
          <path class="st42" d="M237.3,36.8c.2-.2.5-.2.7,0s.2.5,0,.7c-.2.2-.5,0-.7,0,0,0-.2-.2-.2-.4,0,0,0-.1.1-.2Z"/>
          <path class="st42" d="M239.3,40.1c.4.2.8,0,1.2-.3.3-.3.6-.8.5-1.2,0-.9-1.3-1.3-1.9-.6-.5.5-.6,1.9.2,2.2Z"/>
          <path class="st42" d="M235.1,37.4c.1.1.3.1.5,0,.2-.1.3-.5.1-.7s-.5-.4-.7-.1,0,.6,0,.7Z"/>
        </g>
        <g>
          <path class="st42" d="M246.9,65.6c.4,0,.8-.1,1-.4.2-.3.3-.7.3-1.1,0-.9-1.3-2.1-2-1s-.2,2.4.7,2.6Z"/>
          <path class="st42" d="M244.3,66.3c-.3,0-.4.4-.4.7s.2.6.5.5c.2,0,.3-.3.3-.5s0-.6-.3-.6Z"/>
          <path class="st42" d="M246.4,70.2c.2-.3.7-.2.9,0,.2.2.3.6.1.8s-.5.3-.8.1c-.3-.2-.4-.6-.2-.9Z"/>
          <path class="st42" d="M247.4,76.9c-.1.2-.2.5-.2.8s.3.5.5.5c.2,0,.3-.2.3-.4s0-.3,0-.5c0-.2,0-.4-.2-.5s-.4,0-.4.1"/>
        </g>
        <path class="st42" d="M256.9,48.6c.2,0,.3-.3.2-.5s-.7-.6-.8-.1.4.6.6.6Z"/>
        <path class="st6" d="M245.2,38.3l-7.6-11.1c-2.8-4.1-8.6-5-12.5-2h0c-4,3-4.6,8.7-1.3,12.5l11.6,13.5c.7.8.9,1.5.6,2.6l-3.9,14.8c-1.6,6,2.3,12.1,8.4,13.3h0c6.7,1.3,12.9-3.9,12.8-10.7l-.3-14.5c-.1-1.1.3-2,1.1-2.7l12-11.5c4.1-3.9,3.6-10.5-1-13.8h0c-4.3-3.1-10.3-1.8-13,2.7l-4.2,6.9c-.9,1.1-1.8,1.1-2.6,0Z"/>
      </g>
      <g>
        <g>
          <path class="st105" d="M52.3,100c-13.6-8.6-41.7-.4-43.9,23.9-1.7,19,8.5,34.9,26,35.7,6.9.3,13-.4,19.7-3.2,7.2-3.1,9.9-10.5,7.9-16.1-1.9-5.5-8.3-11.1-17.2-6.5-14.2,7.3-18.2-.8-16.7-7.7,1.8-8.5,9.8-10.5,18.8-6.6,3,1.3,8.6-.6,11-5.6,2.5-5.3-.3-10.6-5.6-13.9Z"/>
          <g class="st78">
            <path class="st29" d="M29.7,99c1.6,3.2-3.7,4.8-6.1,7.1-4.7,4.5-11.2,14.6-8.1,28.4.9,4.2,2.9,8.2,6.1,11,4.2,3.8,10.3,4.8,15.9,3.9,5.6-.8,10.8-3.3,15.8-5.9,1.6-.8,3.4-1.7,5.2-1.4,2.2.4,3.7,2.6,4.2,4.7,1.1,4.9-1.7,10.1-5.7,13.1s-9.2,4.3-14.2,5.2c-5,.9-10.1,1.5-15,.3-4.2-1-8-3.3-11.5-5.8-4.2-3.1-8.2-6.7-10.9-11.2-4.5-7.4-.7-36.8,6.3-43.4,2.5-2.3,15.9-10.2,18-6Z"/>
            <path class="st31" d="M24.1,118.3c1-2.8,4-4.4,6.9-4.9,2.9-.5,5.9-.2,8.9-.6,5.1-.6,9.9-3.1,13.2-7,.9-1,1.9-2.2,3.2-2,1.1.1,1.8,1.2,2.3,2.2,2.1,4.7.7,10.8-3.4,14-4.8,3.8-11.6,3.4-16.4,7.1-2.2,1.7-3.5,4.4-6.4,5.1-2.5.6-4.7-.8-6-2.9-1.7-2.8-3.4-7.7-2.3-10.9Z"/>
          </g>
        </g>
        <g class="st56">
          <path class="st44" d="M26.2,136.9c6.7,5,16.5,5.1,23.3.2.4-.3.8.3.4.6-7,5.2-17.2,5.2-24.3,0-.5-.4,0-1.2.6-.8h0Z"/>
        </g>
        <g class="st60">
          <path class="st44" d="M53.7,136.6c.4,0,.4.8.2,1.2-.3.4-1,.7-1.3.3-.9-1.1.4-1.6,1.1-1.5Z"/>
        </g>
        <g class="st60">
          <path class="st44" d="M26.9,143.7c.4,0,.4.8.2,1.2-.3.4-1,.7-1.3.3-.9-1.1.4-1.6,1.1-1.5Z"/>
        </g>
        <g class="st60">
          <path class="st44" d="M34.4,152.7c.5.2,1,0,1.5-.3.5-.3,1-.6,1.3-1,.9-1.4-.8-2.7-2-1.7-.7.5-2,2.4-.7,3Z"/>
        </g>
        <g class="st60">
          <path class="st44" d="M30,148.9c-.1.2-.1.5,0,.6.1.2.4.2.6.2s.4-.2.6-.3c.1-.1.3-.2.4-.4s.1-.4,0-.5c-.1-.2-.4-.3-.6-.2s-.9.5-1,.7Z"/>
        </g>
        <g class="st60">
          <path class="st44" d="M32.6,146.7c0,.2.2.3.4.4s.4,0,.5,0c.3,0,.7-.2.7-.5,0-.2-.3-.4-.5-.4s-1,0-1,.6Z"/>
        </g>
        <path class="st23" d="M19.7,133.4c.3.4.8.7,1.3.6.6,0,1-.6,1.3-1.1.3-.5.5-1.1.2-1.5-.4-.7-1.8-.7-2.5-.4s-.9,1.8-.4,2.5Z"/>
        <path class="st23" d="M18.4,128.5c0,.3.3.6.6.7.4,0,.7-.2,1-.5.2-.2.3-.5.3-.8,0-.6-.4-1.1-1-.8s-.9,1-.9,1.4Z"/>
        <g class="st51">
          <path class="st44" d="M13.4,119.4c3.7-9.2,12.3-16.3,22.1-18.2.6-.1.8.8.2,1-9.5,1.7-17.9,8.5-21.6,17.5-.2.5-.9.2-.7-.3h0Z"/>
        </g>
        <path class="st45" d="M43.1,103.6c.6.1,1.2-.3,1.7-.7.3-.3.7-.6.8-1.1.4-1.4-1.7-2.1-2.6-1.3-.8.7-1.3,2.8.1,3.1Z"/>
        <g>
          <g class="st77">
            <path class="st30" d="M32.2,95.4c-11.9,1.2-22.2,10.2-26.9,21.1-4.7,11-4.5,23.5-1.5,35.1,1.7,6.7,4.5,13.3,9.6,18,5.7,5.2,13.7,7.1,21.4,7.5,6.5.3,13.1-.4,19.1-2.9,6-2.6,11.2-7.2,13.5-13.3,2.4-6,1.8-12.7.4-18.9-1.4-6.3-3.6-12.3-4.5-18.7-.7-5-.6-10.1-2.2-14.9-2.9-8.6-11.7-14.8-20.8-14.8-2.7,1.3-5.1,1.5-8.1,1.8Z"/>
            <path class="st20" d="M17.5,100c-3.7,2.4-6.4,6.2-7.4,10.5-.4,1.6-.3,3.5,1.1,4.3,1,.6,2.4.3,3.3-.4.9-.7,1.6-1.7,2.4-2.6,4-4.7,10.6-6.6,16.8-6.2,6.2.3,12.1,2.5,18,4.6,2,.7,4.1,1.4,6.2,1.6,2.1.2,4.4-.3,6.1-1.6,3.2-2.6,3-7.9.6-11.2-2.5-3.3-6.6-5-10.6-5.9-10.6-2.5-22-1.1-31.7,3.8s-3.4,2.3-5.3,4.1c.1-.2.6-.7.7-.9Z"/>
            <path class="st82" d="M27,123.4c-2.4.9-3.5,3.8-3.3,6.4.2,4.2,2.6,10.9,6.1,13.2,5,3.2,16,4.9,24.8-3.2,3.5-3.2,6.4,2.8,7,1.3.7-1.5,2.9-1.9,2-3.2-1.4-2-11.7-8.3-14.2-8.3-3.7,0-9.2,1-12.7-.7-3.9-1.9-4.5-6.5-9.7-5.5Z"/>
          </g>
          <path class="st8" d="M52.3,100c-13.6-8.6-41.7-.4-43.9,23.9-1.7,19,8.5,34.9,26,35.7,6.9.3,13-.4,19.7-3.2,7.2-3.1,9.9-10.5,7.9-16.1-1.9-5.5-8.3-11.1-17.2-6.5-14.2,7.3-18.2-.8-16.7-7.7,1.8-8.5,9.8-10.5,18.8-6.6,3,1.3,8.6-.6,11-5.6,2.5-5.3-.3-10.6-5.6-13.9Z"/>
        </g>
      </g>
      <g>
        <g>
          <path class="st2" d="M121.6,93.3h0c5.6-1.4,13.1,2.4,12.7,12l1.3,25.3c.2,3.2,3.1,3.3,6.9,2.7l9.9-2.2c4.8-1.2,9.9,0,12.4,6.1h0c3.3,8.2-5,14.4-10.2,14.9l-25,2.6c-.3,0-.5,0-.8,0,0,0,0,0-.1,0-4.8,0-8.8-3.7-9.6-8.4l-6.4-38.7c-1.7-7.2,2.8-12.6,8.9-14.1Z"/>
          <g class="st80">
            <path class="st86" d="M109.2,95.7c.9-1.8,3.4-2.2,5.2-1.3,1.8.9,3,2.6,3.9,4.4,3.3,6.6,3.5,14.1,4.3,21.4.7,7.3-1.1,18.8,5.7,23.7,4.2,3.1,22.2-3.9,29,2.6,1.6,1.5,2.3,5.5-.6,6.6-1.7.7-16,6-17.8,6.5-4.7,1.4-9.7,1.7-14.5.6-4.7-1.1-9.2-3.9-11.8-8-3-4.6-3.5-10.4-4-15.9-.6-8.3-1.3-16.7-1.9-25-.3-4.1-.5-8.6,1.9-11.9-.6-1,.1-2.6.7-3.6Z"/>
            <path class="st98" d="M131.8,129.6c-1.8,2.1-3.4,5-2.4,7.6.8,2.1,3,3.4,5.3,4,4.2,1,8.6.1,12.9-.6,4.3-.7,8.9-1.2,12.8.6,1.9.9,3.5,2.2,5.4,3.2,1.9.9,4.2,1.3,6,.2,2.1-1.3,2.6-4.2,1.7-6.4-.8-2.3-2.7-4-4.7-5.4-4.2-3.2-9.1-5.6-14.1-7.2-2.6-.8-5.2-1.4-7.9-1.7-2.2-.3-5.5-.9-7.7-.1-2.7,1-5.4,3.7-7.2,5.8Z"/>
            <path class="st97" d="M119.3,89.2c-5.2,0-10.2,4-11.5,9-1.3,5,1.2,10.8,5.8,13.3,3.5,1.9,10.7,2.2,14,4.5,2.6,1.8,1.6,6.8,3.5,9.3s4.5,2.4,7.6,2.1c2.5-.2,4.6-2,5.7-4.2,1.1-2.2,1.3-4.7,1.2-7.2-.3-6.3-2.7-12.4-6.8-17.2-4.1-4.8-9.8-8.2-16-9.5-2-.4-1.5-.2-3.6-.1Z"/>
            <path class="st87" d="M129.1,129.1c.9,1.8,0,6.8,2.3,8.8,1.7,1.4,7,2.1,17.4-2,1.4-.5,11.7-4.6,13-5.4,1.9-1.2-4.4.5-2.5-.7.7-.4-.2-.5.3-1.1,1.6-1.9-11.5-2-13-4-1.8-2.3-4.5-3.7-6.7-5.5-1.4-1.2,4.9-6.2,2.9-6.3-2.6,0-6.4-.5-8.1-1-9.6-2.5-9.8,8.9-5.5,17.3Z"/>
          </g>
        </g>
        <g class="st53">
          <path class="st61" d="M161.7,134.3c1.7,3.3,1.6,7.5-.6,10.8-2.2,3.3-6,5.5-10.2,5.3-1.5,0-2.6-1.2-2.6-2.7,0-1.5,1.4-2.7,2.9-2.5,2.3.3,5-.7,6.6-2.6,1.7-1.9,2.4-4.9,1.6-7.6-.4-1.3,1.5-2.1,2.2-.9h0Z"/>
        </g>
        <g class="st53">
          <path class="st61" d="M119.5,97c2.6-.5,5.3-1.1,7.9,0,2.6,1,4.2,4,3.8,6.8-.1.6-1.1.5-1-.2.5-2.3-.9-5-3.1-5.9-2.3-1-5-.5-7.4-.1-.4,0-.5-.5-.1-.6h0Z"/>
        </g>
        <g class="st53">
          <path class="st61" d="M131.9,117.1c-.6,6.3-.2,12.7,1.4,18.8.2.6-.8.9-1,.2-1.5-6.2-1.8-12.7-1.1-19.1,0-.4.7-.4.7,0h0Z"/>
        </g>
        <path class="st49" d="M125.5,126.5c0,.3.3.5.6.6.5.2,1,0,1.3-.4.6-.6,1.3-2.8,0-3-1.2-.2-2.2,1.8-1.8,2.8Z"/>
        <path class="st49" d="M127.5,120.5c-.4,0-.7.3-.9.6s-.2.8,0,1c.3.2.6.1.9,0,.4,0,.7-.2.9-.5.2-.3.2-.7,0-1s-.6-.3-1-.2Z"/>
        <path class="st49" d="M129.1,108.2c-.2.3-.3.7,0,1,.2.3.5.4.8.4.3,0,.6,0,1-.2.2,0,.5-.1.7-.3s.4-.3.4-.6c0-.3-.2-.6-.4-.8-.8-.6-1.9-.3-2.4.4Z"/>
        <path class="st49" d="M131.7,111.1c.3,0,.6.3.5.6,0,.3-.6.4-.8.2s-.1-.7.2-.8"/>
        <path class="st4" d="M121.6,93.3h0c5.6-1.4,13.1,2.4,12.7,12l1.3,25.3c.2,3.2,3.1,3.3,6.9,2.7l9.9-2.2c4.8-1.2,9.9,0,12.4,6.1h0c3.3,8.2-5,14.4-10.2,14.9l-25,2.6c-.3,0-.5,0-.8,0,0,0,0,0-.1,0-4.8,0-8.8-3.7-9.6-8.4l-6.4-38.7c-1.7-7.2,2.8-12.6,8.9-14.1Z"/>
      </g>
      <g>
        <g>
          <path class="st72" d="M221.1,130.9c0-1.3,1.7-1.8,2.4-.7l8.6,13.6c3.1,3.6,7.4,4.4,10.9,1.8,4.6-3.3,4.6-10.1.2-13.7l-5.6-6.4c-.4-.3-.4-1,.1-1.2,5.9-3,10.2-9,10.7-16.1v-.9c.7-10.5-9-19.1-19.5-20.1l-10.6-1c-4.9-.4-9.4,3-10.2,7.8l-6.2,39.5c-1,5.7,3.2,10.9,9,11.3h0c5.4.3,10.1-3.8,10.4-9.2v-4.7M227.1,111.7l-2.9.3c-1.1,0-2-.8-1.9-1.8l.4-5.9c0-.7.6-1.3,1.3-1.4l2.1-.2c2-.2,3.8,1.2,4.1,3.2l.2,1.6c.3,2.1-1.2,4.1-3.4,4.3Z"/>
          <g class="st79">
            <path class="st36" d="M211.8,102.7c1.8,1.2,2.4,3.7,2.2,5.8-.2,2.2-1,4.2-1.4,6.4-1.1,5.4.7,11.3,4.6,15.2,1.9,1.9,4.2,3.3,6.1,5.1s3.6,4.2,3.6,6.9c0,3-2.1,5.7-4.8,7.1s-5.7,1.7-8.8,1.8c-4.4,0-9.2-.6-12.3-3.7-3-3.1-3.5-7.7-3.5-11.9,0-8,1-15.9,3.1-23.7s4.8-13.2,11.1-9.1Z"/>
            <path class="st35" d="M216.7,105.3c0,2.3,1.7,4.5,1.4,6.8-.2,1.5-1.2,2.8-1.9,4.2-.7,1.4-.9,3.3.3,4.3.7.6,1.8.7,2.8.4s1.7-.9,2.5-1.4c1.6-1.2,3.3-2.4,4.9-3.5,5.2-3.8,8.8-10,3.2-15.5-4-3.9-13.4-1.4-13.2,4.8Z"/>
            <path class="st34" d="M243.4,138c-1.6,1.5-2.2,4.2-4.3,5-2.2.9-4.6-.9-5.6-2.9-1-2.1-1.2-4.5-2.1-6.6-.6-1.5-1.6-2.9-3.1-3.6-1.5-.7-3.5-.4-4.4.9-.9,1.2-.7,3-.4,4.5.5,3,1.1,6,1.6,9,.4,2,.8,4.1,2,5.8,2.3,3.2,6.8,4,10.8,3.8,4-.1,8.2-.9,11.2-3.6,2.5-2.2,4.1-7.1,2.8-10.4-1.3-3.2-6.1-4.2-8.6-1.8Z"/>
            <path class="st38" d="M237.3,115.3c-1.9,2-4,4-6.7,4.7-1.4.3-2.8.3-4.2.6s-2.8,1-3.3,2.3c-.7,1.6.3,3.6,1.8,4.6,1.5,1,3.3,1.2,5.1,1.4,3.7.5,7.3.9,11,1.4,1.6.2,3.3.4,4.7-.5,2.6-1.7,2.7-6.3,3.1-9,.4-2.7.9-5.6.4-8.3-1.5-7.4-9.4.3-11.9,2.9Z"/>
            <path class="st58" d="M206.2,85.1c-1.5,1-3,2.6-2.6,4.4.3,1.3,1.6,2.3,2.9,2.6s2.7.1,4.1,0c10.1-.7,20.4,3,27.6,10,2.1,2,4,4.3,6.5,5.8,2.5,1.5,5.9,2,8.3.3,2-1.5,2.7-4.3,2.2-6.7-.5-2.4-2-4.5-3.7-6.3-4.4-4.6-10.3-7.7-16.4-9.6-5.4-1.7-11-2.1-16.5-3.2-2.1-.4-3.4-.8-5.6-.3-2.4.6-4.6,1.6-6.6,3Z"/>
            <path class="st68" d="M227.5,131.5c-.3.6-.5,1.5,0,2.1.9.9,3.1-.2,2.8-1.4s-.9-1.2-1.2-1.4c-.7-.4-1.2.1-1.6.7Z"/>
            <path class="st66" d="M205.9,116.3c-.4.9-.6,2-.1,2.9.7,1,2.2,1.1,3.4.8,1.4-.4,2.7-1.3,3.4-2.5,1.2-2,.5-5.3-2.1-5.8-2.2-.4-3.9,3.1-4.5,4.7Z"/>
            <path class="st66" d="M204.6,127.9c-1,2.6-.9,5.6.2,8.1.7,1.6,1.9,3,3.5,3.5,1.2.3,2.5,0,3.6-.5,1.1-.6,2-1.4,3-2.2.9-.8,1.8-1.7,2.3-2.8.7-1.6.4-3.4-.3-5s-1.8-2.9-2.9-4.2c-1.5-1.8-3.1-3.4-5.4-1.9-1.8,1.2-3.3,3-4.1,5.1Z"/>
            <path class="st66" d="M239.3,139.6c-1.2-1.6-3.7-2.9-5.5-3.7-1.3-.5-2.3.2-2.8,1.2-.5.2-.5,1.2-.4,1.7,0,.2,0,.3,0,.5.2.9.6,1.7,1,2.4.5.9,1.1,1.8,1.6,2.8.3.6,1.1.9,1.7,1.1.6.3,2.2-.5,2.6-.7.9-.5,1.8-1,2.2-1.9.5-1.1.2-2.4-.5-3.3Z"/>
            <path class="st66" d="M218.6,101.6c-.3.7-.5,1.4-.3,2.1s.9,1.3,1.6,1.2c.8,0,1.4-.7,1.7-1.4.4-.9.6-1.8.6-2.8-.2-3.6-2.9-.5-3.6.8Z"/>
            <path class="st59" d="M202.6,93.2c-.9,2.1-1.4,5,.4,6.6,2.2,1.9,5.8.3,8.4,1.5,1.9.8,3,2.9,3.2,5s-.2,4.1-.5,6.2c-.3,1.9-.2,4.3,1.4,5.3,1,.6,2.4.5,3.5-.2,1-.7,1.7-1.8,2-2.9.7-2.1.3-4.4.6-6.7.2-2.2,1.3-4.7,3.5-5.2,1.7-.4,3.6.5,4.5,2.1.8,1.6.7,3.5-.2,5.1-.6,1.1-1.1-.4-1.8.6-.8,1.1-1.8,4.8-1.5,6.1.3,1.1.6,8.2,13.9,6.3,1.1-.2,3.3,1.1,4.4,1.3,2.5.4-2.5-.4,0,0,1.9.3-1.6-2.4.2-3,2.6-.8,4.3-3.1,5.7-5.4,2.1-3.4,3.6-7.2,3.9-11.2.3-4-.8-8.2-3.5-11.1-3-3.2-7.4-4.6-11.8-5.3-4.3-.7-8.8-.9-12.9-2.3-2.3-.8-4.5-2-6.9-2.7-7.4-2.2-13.9,3.6-16.7,10Z"/>
          </g>
        </g>
        <g class="st54">
          <path class="st57" d="M220.1,110l-3.4,27.3c0,.3-.3.5-.6.4-.3,0-.5-.3-.4-.6,0,0,3.6-27.2,3.6-27.2,0-.5.8-.4.7,0h0Z"/>
        </g>
        <g class="st54">
          <path class="st57" d="M222.3,90.7c9.8-.1,21.1,4.5,23.1,15.1,0,.3-.5.4-.5,0-2.1-10.2-13.1-14.5-22.6-14.2-.7,0-.7-1,0-1h0Z"/>
        </g>
        <g class="st54">
          <path class="st57" d="M236,128.7l6.9,7.6c.3.3-.2.7-.5.4,0,0-7.1-7.4-7.1-7.4-.5-.5.3-1.2.7-.7h0Z"/>
        </g>
        <path class="st46" d="M216.4,109.4c-.4.3-.5.7-.5,1s.4.5.7.4.5-.2.7-.5-.4-1.2-.9-.9Z"/>
        <path class="st46" d="M210.7,131.3c0,.3,0,.7.1,1,.3.4.9.5,1.4.3s.7-.7.9-1.2c.1-.4.1-.8,0-1.1-.3-.4-1-.4-1.4-.3s-.7.8-.8,1.3Z"/>
        <path class="st46" d="M212,126.3c-.3.1-.5.3-.6.6,0,.3,0,.7.3.8.3,0,.5-.2.7-.4.1-.2.2-.3.2-.5s0-.4-.2-.5c-.2-.1-.5,0-.5,0Z"/>
        <path class="st47" d="M240.6,108.6c-.3.1-.5.3-.6.6,0,.3,0,.7.3.8.3,0,.5-.2.7-.4.1-.2.2-.3.2-.5s0-.4-.2-.5-.5,0-.5,0Z"/>
        <path class="st46" d="M209.6,118.9c.3,0,.6,0,.7.3s0,.6-.3.7-.6,0-.7-.3,0-.6.3-.7"/>
        <path class="st46" d="M209.1,125.5c0,.1-.1.2-.1.4s0,.3.2.3c.1,0,.3,0,.4-.1,0,0,.1-.2.1-.3s0-.2-.2-.3-.3,0-.3,0"/>
        <path class="st47" d="M236.9,117.2c.3,0,.5-.3.5-.6s0-.6-.2-.8c-1.2-1.9-2,1.8-.3,1.4Z"/>
        <path class="st47" d="M237.8,114.3c-.2.1-.2.4,0,.5s.4.2.6,0c.2-.1.2-.4.1-.6s-.4-.1-.6,0Z"/>
        <path class="st47" d="M234.8,113.3c-.3,0-.4.3-.3.5s.5.2.6,0c0-.1,0-.3,0-.4s-.3-.2-.4,0"/>
        <path class="st47" d="M236.6,105.9c-.2.5,0,1.1.4,1.4s1,.3,1.4,0c.5-.3.7-.9.5-1.4-.4-1-1.9-1.1-2.3,0Z"/>
        <path class="st7" d="M221.1,130.9c0-1.3,1.7-1.8,2.4-.7l8.6,13.6c3.1,3.6,7.4,4.4,10.9,1.8,4.6-3.3,4.6-10.1.2-13.7l-5.6-6.4c-.4-.3-.4-1,.1-1.2,5.9-3,10.2-9,10.7-16.1v-.9c.7-10.5-9-19.1-19.5-20.1l-10.6-1c-4.9-.4-9.4,3-10.2,7.8l-6.2,39.5c-1,5.7,3.2,10.9,9,11.3h0c5.4.3,10.1-3.8,10.4-9.2v-4.7M227.1,111.7l-2.9.3c-1.1,0-2-.8-1.9-1.8l.4-5.9c0-.7.6-1.3,1.3-1.4l2.1-.2c2-.2,3.8,1.2,4.1,3.2l.2,1.6c.3,2.1-1.2,4.1-3.4,4.3Z"/>
      </g>
      <g>
        <g>
          <path class="st104" d="M106.6,121.1l-2.3-15.5c-1.2-7.9-8.6-14-17.7-14.4h0c-9.7-.4-18.2,5.8-19.4,14.4l-2.3,15.9c-1.5,10.5,8.5,19.6,20.5,18.5l4.6-.4c10.5-.9,18-9.3,16.7-18.5ZM87.8,119.3h-1.1c-1.6,0-2.2-.5-2.3-3.5v-4.6c-.1-1.9-.1-3,1.8-3.3,1.7-.3,2.2.8,2.5,3.1l.6,4.4c.4,2.6.6,3.8-1.6,3.9Z"/>
          <g class="st64">
            <path class="st37" d="M64,109.2c1.3-.5,2.7.6,3.2,1.8.5,1.2.5,2.7.5,4,.3,8.3,6.5,16.1,14.6,18.4,3,.8,6.3.9,9.2,2,3,1.1,5.8,3.5,5.8,6.7,0,3.3-2.9,5.9-6.1,7-3.9,1.3-8.3,1-12.2-.3-3.9-1.3-7.5-3.5-10.8-6-1.8-1.3-3.5-2.7-4.9-4.4-3.9-5-3.8-11.9-3-18.1.3-2.4.7-4.8,1.6-7.1.9-2.2,2.4-4.3,4.5-5.6"/>
            <path class="st17" d="M75.3,109.8c-1.3,2.6-1.7,5.8-.5,8.5,1,2.2,2.9,3.9,5.1,5s4.5,1.7,6.9,2.4c2.1.6,4.4,1.1,6.4.4,1.9-.7,3.4-2.4,4-4.4.7-1.9-.3-3-.6-5.1-.3-2.9-.2-6.9-1.8-9.3-1.6-2.4-3.5-6.9-9.9-5.2-4.1,1.1-7.8,3.9-9.7,7.7Z"/>
            <path class="st33" d="M64.5,95.4c-3.3,3.4-5.9,7.8-6.3,12.5-.5,4.7,1.2,9.5,1,14.2-.2,5.2-2.8,10.2-2.3,15.5.5,6.1,5.3,11.3,10.9,13.7,5.7,2.4,12.1,2.3,18.2,1.2,4.9-.9,9.6-2.4,13.9-5,2.2-1.3,7.2-4.7,9.9-10.6,2.9-6.1,2.6-13.3,1-19.9-.4-1.6-11.3-22-13.2-23.9,3.9,4-15-9.4-9.3-6.9-3.8-1.7-8.9-2.7-12.5,0-3.8,2.8-7.9,5.7-11.1,9.2Z"/>
            <path class="st99" d="M76.1,88.8c-2.3.4-4.6,1.6-5.8,3.6-1.2,2-2.1,7.7-.3,9.1,2.2,1.7,7.5-2.7,10.2-2.9,3.9-.3,6.9,1.6,10,4,3.1,2.4,5.3,6,6,9.8.4,2,.3,4.1.5,6.1.2,2,.5,4.1,1.6,5.9,1.1,1.7,3,3.1,5.1,2.9,2-.1,3.8-1.6,4.7-3.3,1-1.7,1.4-3.8,1.7-5.7.8-4.2,1.5-8.6.1-12.7-1-3-3.1-5.6-5.6-7.6-2.5-2.1-5.3-3.6-8.1-5.2-2.9-1.6-5.8-3.3-8.8-4.9-1-.6-2.1-1.2-3.3-.9-1,.2-1.1.9-1.8,1.4-1.6,1-4.5.1-6.4.5Z"/>
            <path class="st19" d="M84.2,109.1c-.3-.9-1.7-1.2-2.6-.8-.9.4-1.5,1.3-2,2.2-.8,1.7-1.5,3.5-1,5.4.4,1.8,2.2,3.4,4,3.1.4.9,1.4,1.5,2.3,1.6,1.6,0,3.1-1.3,3.5-2.9.4-1.6,0-3.3-.7-4.7-.5-1.2-1.2-2.3-2-3.4l-1.6-.4Z"/>
          </g>
        </g>
        <path class="st39" d="M97.3,137.6c0-.9-.2-1.9-.8-2.6-1-1.2-2.6-1.4-4.2-1.7-4.6-.7-9.3-1.7-13.2-4.3-1.8-1.2-3.5-2.8-4-4.9-.7-2.6.5-5.3,1.3-7.9,1.1-3.5,1.5-7.2.8-10.8-.3-1.8-1-3.7-2.5-4.7-1.6-1.1-3.6-1-5.5-.6-1,1.7-1.7,3.6-2,5.6l-2.3,15.9c-1.5,10.5,8.5,19.6,20.5,18.5l4.6-.4c2.7-.2,5.1-1,7.3-2.1Z"/>
        <g class="st55">
          <path class="st57" d="M81.1,111.8c-.9,3.4-.6,7.8,2.3,10.1.5.4,0,1.2-.6.8-1.6-1.3-2.4-3.3-2.7-5.3-.3-1.9-.1-3.9.5-5.8,0-.2.2-.3.4-.2.2,0,.2.2.2.4h0Z"/>
        </g>
        <path class="st48" d="M84.1,127.9c-.6,0-.9.8-.5,1.2.4.4,1.2.3,1.5-.1s-.3-1.1-.8-1"/>
        <path class="st48" d="M81.1,133.2c-.1.3-.2.6,0,.9.2.2.5.3.8.3.4,0,.8-.2,1-.4.5-.5.4-1.3-.4-1.5-.6-.2-1.3.3-1.5.8Z"/>
        <path class="st48" d="M78.4,129.3c.3.2.2.5,0,.8-.2.2-.5.4-.8.5-.4.1-.9.1-1.1-.2-.1-.2,0-.5.2-.7.8-1,1.3-.7,1.7-.4Z"/>
        <g class="st55">
          <path class="st44" d="M73.8,98.7c4.1-3.2,9.6-4.2,14.7-3.6,5.3.6,9.7,4.6,11.6,9.5.2.6-.7,1-.9.4-1.8-4.7-5.7-8.5-10.8-9.2-4.9-.7-10.3.2-14.4,3.2-.2.2-.5-.2-.3-.3h0Z"/>
        </g>
        <path class="st48" d="M98.8,111.3c.3.2.7.1,1,0s.5-.5.6-.8c.3-.8-.3-2-1.2-1.4s-1.3,1.7-.4,2.2Z"/>
        <path class="st48" d="M94.6,127.4c-.3,0-.6.2-.7.5s0,.6.3.8.5.3.9.3c.4,0,.9-.2,1-.6,0-.3-.2-.7-.5-.9-.3-.2-.7-.2-1-.2"/>
        <path class="st48" d="M89.5,122.3c-.3.2-.5.5-.7.8s0,.8.4.9c.2,0,.5,0,.6-.2s.2-.4.3-.6c0-.2.1-.4,0-.6s-.2-.4-.4-.5-.5,0-.5.3"/>
        <path class="st3" d="M106.6,121.1l-2.3-15.5c-1.2-7.9-8.6-14-17.7-14.4h0c-9.7-.4-18.2,5.8-19.4,14.4l-2.3,15.9c-1.5,10.5,8.5,19.6,20.5,18.5l4.6-.4c10.5-.9,18-9.3,16.7-18.5ZM87.8,119.3h-1.1c-1.6,0-2.2-.5-2.3-3.5v-4.6c-.1-1.9-.1-3,1.8-3.3,1.7-.3,2.2.8,2.5,3.1l.6,4.4c.4,2.6.6,3.8-1.6,3.9Z"/>
        <path class="st89" d="M66.8,124.7c-.4,1.3,0,2.7.5,3.9.4,1.1.9,2.4,2,2.9.8.5,1.9.4,2.8.3.8-.1,1.8-.3,2.3-1.5.3-.7-.3-3.2-.6-3.7-.5-.9-.5-1.9-.6-2.9-.1-1.2-1.4-2.1-3-1.7s-2.8,1.4-3.3,2.7Z"/>
        <path class="st89" d="M81.6,138.3c-1.3-.2-6.3-.6-8.9-3.5s-.7-.6-.7-1c0-.4.6-1.1.9-1.4.9-.7,1.7-1.1,2.8-.6.6.3,1.2,1.3,1.8,1.7,1.7,1.2,3.8,1.6,5.9,1.9,2.1.3,4.9.3,6.8,1.1.5.2.6,1,0,1.6-.5.4-6.7.7-8.6.3Z"/>
      </g>
      <g>
        <g>
          <path class="st0" d="M193.2,111.7l1.2-12.8c.8-8.2-5.5-15.3-14.3-15.9l-14.2-1c-8.4-.6-15.8,5-17.1,12.9l-1.9,12.5c-1.3,8.2,5.1,15.7,13.9,16.5l14.9,1.4c8.7.8,16.6-5.3,17.4-13.5ZM171.4,107h-1c-1.6-.2-2.1-.9-2-2.9l.2-2.1c.1-1.3.5-2.2,1.7-2.2h1.2c1.5.2,1.8,1.2,1.7,2.6v2.2c-.2,1.6-.7,2.5-1.9,2.5Z"/>
          <path class="st24" d="M179.6,121.2c-1.4-1-3.1-1.5-4.8-2.1-3-.9-6-1.8-9.1-2.8-1.9-.6-3.8-1.2-5.3-2.3-3.3-2.5-3.7-7-3.1-10.9.6-4.1,2.1-8.2,1.6-12.6-.3-2.2-1.3-4.5-3-6-3.7,2.3-6.3,6-7,10.4l-1.9,12.5c-1.3,8.2,5.1,15.7,13.9,16.5l14.9,1.4c2,.2,3.9,0,5.7-.5.1-1.3-.7-2.7-1.9-3.6Z"/>
          <path class="st26" d="M194.4,98.9c.8-8.2-5.5-15.3-14.3-15.9l-14.2-1c-.2,0-.4,0-.5,0,0,0,0,0,0,0-.3,1.5.3,3,1.4,4.1s2.5,1.6,4,2c2.5.6,5.2.7,7.7,1.1,2.6.4,5.2,1.2,6.9,2.9,1.7,1.7,2.3,4.1,3.1,6.2.8,2.1,2,4.3,4.2,5.1.4.1.8.2,1.2.3l.4-4.6Z"/>
          <path class="st25" d="M183.1,112.8c-.3-2.6-2.8-4.5-5.2-6.1-1.3-.8-2.9-1.9-4.7-2.9v.6c-.1,1.6-.7,2.5-1.8,2.5h-1c-1.6-.2-2.1-.9-2-2.9l.2-2.1c0-.1,0-.2,0-.3-2.3-.9-4.7-1.4-6.7-.9-3.1.7-5.4,3.4-5.3,6.3,0,3.2,2.6,5.8,4.9,8.1,2.1,2.1,4.3,4.2,7.2,5.3,3.6,1.4,8.1.7,11.2-1.5,2-1.5,3.5-3.7,3.2-6Z"/>
          <path class="st96" d="M180.9,110.9c1.9-2.4,2.5-5.7,1.5-8.5-.9-2.5-3.3-5.1-6.3-5.4-1.3-.2-2.5-.2-3.8-.6-1.9-.6-3.8-1-5.8-.3-2.2.8-3.7,2.8-4.2,4.9-.5,2.1-.3,4.2,0,6.2.5,2.8,1.4,5.7,3.9,7.3,1.9,1.2,4.4,1.5,6.7,1.1,3.1-.5,6.1-2.2,7.9-4.6ZM173.1,104.5c-.1,1.6-.7,2.5-1.8,2.5h-1c-1.6-.2-2.1-.9-2-2.9l.2-2.1c.1-1.3.5-2.2,1.7-2.2h1.2c1.5.2,1.8,1.2,1.7,2.6v2.2Z"/>
          <path class="st6" d="M193.2,111.7l1.2-12.8c.8-8.2-5.5-15.3-14.3-15.9l-14.2-1c-8.4-.6-15.8,5-17.1,12.9l-1.9,12.5c-1.3,8.2,5.1,15.7,13.9,16.5l14.9,1.4c8.7.8,16.6-5.3,17.4-13.5ZM171.4,107h-1c-1.6-.2-2.1-.9-2-2.9l.2-2.1c.1-1.3.5-2.2,1.7-2.2h1.2c1.5.2,1.8,1.2,1.7,2.6v2.2c-.2,1.6-.7,2.5-1.9,2.5Z"/>
          <path class="st40" d="M149.3,106.5c-.1.5-.2,1,0,1.5.4.6,1.2.7,1.9.7.9,0,1.9.1,2.7-.2,1.2-.5,1.6-1.8,1.9-3,.2-.6.4-1.3.4-1.9s-.2-1.4-.8-1.8c-1.1-1-3.6-.8-4.6.2-1.1,1.1-1.2,3.2-1.6,4.6Z"/>
          <path class="st40" d="M154.8,112.3c.4.8.7,1.6,1.3,2.3,1.3,1.4,3.5,1.8,5.5,2,3.7.4,7.3.8,11,1.2,1.4.2,2.9.3,4.2,1s2.1,1.9,1.7,3.1c-.3,1-1.4,1.7-2.5,2-1.1.3-2.3.2-3.4.2-3.5-.2-7-.6-10.4-1.2-2-.3-4-.7-5.7-1.6-3.1-1.5-5.3-4.3-6-7.3-.2-1.1-.6-3,.5-3.7,1.7-1.1,3.4.8,4,2.1Z"/>
          <g>
            <path class="st65" d="M161.5,114.7c-.1,0-1.1.7-.8,1.2s1.6.9,2,.5c.4-.4,1-.7.7-1.1s-1.3-.7-2-.6Z"/>
            <path class="st65" d="M158,114.2c-.3.1-.5.6-.3.8s.8.4,1.1,0,.8-.8,0-.8h-.8Z"/>
            <path class="st65" d="M157.7,111.6c-.4.2-.8.7-.5.9.3.2.8.4,1.2,0s.6-1.1.2-1.2-.9.2-.9.2Z"/>
            <path class="st65" d="M159.7,112.4c-.5.5-.7.9-.4,1s1.1.5,1.3,0c.2-.5.6-.9.2-1-.4-.1-1.1,0-1.1,0Z"/>
            <path class="st65" d="M188.5,102c-.7.2-1.5.7-1.4,1.7s.9,1.2,1.7,1.1,1.2-.8,1.3-1.5c0-.7,0-1.7-1.6-1.3Z"/>
            <path class="st65" d="M189.5,99.8c-.4,0-.7.4-.5.8s.5.7,1,.5c.4-.1.5-.5.5-.9s-.7-.5-1-.5Z"/>
            <path class="st65" d="M190.6,103.7c.3.3,1,.5,1.4,0,.4-.5.4-1-.3-1-.7,0-1.4.6-1.1.9Z"/>
            <path class="st65" d="M187.7,105.9c-.3.2,0,.6,0,.8s.5.8,1,.4.7-.7.3-1.1-.9-.3-1.2-.1Z"/>
            <path class="st65" d="M155.8,96.1c-.4.3-.3.9,0,1.1.8.4,1.6-.8,1.2-1.1s-1-.2-1.3,0Z"/>
            <path class="st65" d="M159.8,94.9c-1,.2-1.3.5-1.5,1-.1.6,0,1.4.7,1.6s2.4-.3,2.6-1-.8-1.8-1.8-1.7Z"/>
            <path class="st65" d="M161.7,92.5c-.5,0-.8.8-.4,1,.7.4,1.6-.3,1.4-.7-.2-.4-.4-.5-1-.4Z"/>
            <path class="st65" d="M158.3,93c-.5.3-.6.7-.4.9.3.5,1,.7,1.2.3s.3-.7.2-.9c-.2-.7-.8-.5-1-.3Z"/>
          </g>
          <path class="st50" d="M191.5,104.3c-.6,5.7-3.3,10.9-6.7,15.3-1.2,1.4-2.5,2.8-4.1,4-.5.4-1.3.3-1.7-.1-.4-.5-.3-1.2.3-1.5,1.4-.9,2.7-2.1,3.8-3.4,2.3-2.7,4.3-5.8,5.7-9.1.7-1.7,1.3-3.4,1.5-5.2.1-.7,1.3-.7,1.3,0h0Z"/>
          <path class="st65" d="M186.2,92.3c-.2.5-.9.7-1.5.6-.8-.2-1.2-.9-.9-1.6.3-.7,1.2-.8,1.9-.4.6.3.7,1,.5,1.4Z"/>
          <path class="st65" d="M188.4,94.4c0,.4-.4.8-.9.8s-.8-.4-.8-.8c0-.4.4-.8.9-.8s.8.4.8.8Z"/>
        </g>
        <path class="st50" d="M163.6,84.9c1.3,0,3.2.4,4.5.5,4.3.6,8.7,1.2,12.9,2.3.2,0,.3,0,.5.3.2.4.2,1.1,0,1.6-.3.5-.7.7-.9.3,0,0,.1.1,0,0,0,0-.3,0-.3-.1-4.1-1-8.3-1.6-12.5-2.2-1.2-.1-3.1-.4-4.4-.4-.9,0-.7-2.4.3-2.5h0Z"/>
      </g>
    </g>
  </g>
</svg>